<svg viewBox="0 0 620 390" fill="none" xmlns="http://www.w3.org/2000/svg"><mask id="a" maskUnits="userSpaceOnUse" x="0" y="0" width="620" height="390"><path fill-rule="evenodd" clip-rule="evenodd" d="M620 0H0v390h620V0zm-81 45H83v285.003h456V44.999z" fill="#fff"/></mask><g mask="url(#a)"><g opacity=".8" filter="url(#filter0_f)"><path transform="matrix(1 0 0 -1 73 360)" fill="url(#paint0_linear)" d="M0 0h475v3H0z"/></g><g filter="url(#filter1_f)"><path fill="url(#paint1_linear)" d="M28 360.907h475.2v1.2H28z"/></g><g filter="url(#filter2_f)"><path transform="matrix(-1 0 0 1 587.2 360.907)" fill="url(#paint2_linear)" d="M0 0h475.2v1.2H0z"/></g><g opacity=".05" filter="url(#filter3_f)"><rect x="59.8" y="342.701" width="500.4" height="35.411" rx="17.706" fill="#000"/></g><g><g filter="url(#filter4_dd)"><rect x="58" y="22" width="505" height="330" rx="15.6" fill="url(#paint3_linear)"/></g><path fill="url(#paint4_linear)" d="M10 349h600v4H10z"/><path d="M257 349h107a3 3 0 01-3 3H260a3 3 0 01-3-3z" fill="url(#paint5_linear)"/><path d="M257 349h107a3 3 0 01-3 3H260a3 3 0 01-3-3z" fill="#fff" style="mix-blend-mode:multiply"/><g><path fill-rule="evenodd" clip-rule="evenodd" d="M106 360c-81.576 0-95-7-95-7l300-1 298 1s-13.386 7-95 7H106z" fill="url(#paint6_linear)"/><path d="M11 353l-.001-.3-.138.566L11 353zm300-1l.001-.3h-.002l.001.3zm298 1l.139.266-.138-.566-.001.3zm-598 0l-.138.266.001.001.003.002.01.005.036.017a10.712 10.712 0 00.721.292c.537.195 1.39.471 2.664.801 2.548.66 6.788 1.537 13.574 2.414C41.44 358.55 65.205 360.3 106 360.3v-.6c-40.78 0-64.517-1.75-78.052-3.498-6.768-.873-10.983-1.746-13.5-2.399-1.26-.326-2.093-.596-2.61-.784a9.707 9.707 0 01-.668-.27l-.026-.013-.005-.002h-.001L11 353zm299.999-1.3l-300 1 .002.6 300-1-.002-.6zm0 .6l298 1 .002-.6-298-1-.002.6zM609 353l-.139-.266h0l-.005.003a9.737 9.737 0 01-.693.282c-.515.188-1.348.458-2.605.784-2.515.653-6.726 1.526-13.491 2.399C578.536 357.95 554.8 359.7 514 359.7v.6c40.814 0 64.578-1.75 78.144-3.502 6.783-.877 11.019-1.754 13.565-2.414 1.272-.33 2.123-.606 2.659-.801a10.6 10.6 0 00.72-.292l.036-.017.01-.006.003-.001.001-.001L609 353zm-95 6.7H311v.6h203v-.6zm-408 .6h205v-.6H106v.6z" fill="url(#paint7_linear)"/></g></g></g><defs><linearGradient id="paint1_linear" x1="492.4" y1="360.921" x2="28" y2="360.921" gradientUnits="userSpaceOnUse"><stop stop-color="#fff" stop-opacity=".01"/><stop offset=".853"/><stop offset="1" stop-opacity=".01"/></linearGradient><linearGradient id="paint7_linear" x1="11" y1="352" x2="11" y2="360" gradientUnits="userSpaceOnUse"><stop stop-color="#D6D9DC"/><stop offset="1" stop-color="#B0B4B7"/></linearGradient><linearGradient id="paint6_linear" x1="11" y1="352" x2="11" y2="360" gradientUnits="userSpaceOnUse"><stop stop-color="#F1F3F5"/><stop offset="1" stop-color="#A9ADB1"/></linearGradient><linearGradient id="paint5_linear" x1="257" y1="352" x2="364" y2="352" gradientUnits="userSpaceOnUse"><stop stop-color="#AFB2B6"/><stop offset=".022" stop-color="#C9CBCE"/><stop offset=".066" stop-color="#D8DBDE"/><stop offset=".129" stop-color="#EDEEEF"/><stop offset=".332" stop-color="#F0F1F2"/><stop offset=".514" stop-color="#EEEFF0"/><stop offset=".73" stop-color="#EEEFF0"/><stop offset=".935" stop-color="#D8DBDE"/><stop offset=".977" stop-color="#C9CBCE"/><stop offset="1" stop-color="#AFB2B6"/></linearGradient><linearGradient id="paint4_linear" x1="10" y1="351" x2="610" y2="351" gradientUnits="userSpaceOnUse"><stop stop-color="#C9CCCF"/><stop offset=".029" stop-color="#D9DEE3"/><stop offset=".091" stop-color="#F1F4F7"/><stop offset=".196" stop-color="#E1E5E9"/><stop offset=".277" stop-color="#D9DBDE"/><stop offset=".405" stop-color="#D6D8DB"/><stop offset=".595" stop-color="#D6D8DB"/><stop offset=".666" stop-color="#D9DBDE"/><stop offset=".741" stop-color="#E1E5E9"/><stop offset=".875" stop-color="#F1F4F7"/><stop offset=".973" stop-color="#D9DEE3"/><stop offset="1" stop-color="#C9CCCF"/></linearGradient><linearGradient id="paint0_linear" x1="464.205" y1=".034" x2="0" y2=".034" gradientUnits="userSpaceOnUse"><stop stop-opacity=".01"/><stop offset=".142"/><stop offset=".491"/><stop offset=".853"/><stop offset="1" stop-opacity=".01"/></linearGradient><linearGradient id="paint3_linear" x1="-27.239" y1="51.135" x2="11.531" y2="381.904" gradientUnits="userSpaceOnUse"><stop stop-color="#F4F7FA"/><stop offset="1" stop-color="#ECEEF1"/></linearGradient><linearGradient id="paint2_linear" x1="464.4" y1=".014" x2="0" y2=".014" gradientUnits="userSpaceOnUse"><stop stop-color="#fff" stop-opacity=".01"/><stop offset=".853"/><stop offset="1" stop-opacity=".01"/></linearGradient><filter id="filter1_f" x="21.205" y="354.112" width="488.791" height="14.791" filterUnits="userSpaceOnUse" color-interpolation-filters="sRGB"><feFlood flood-opacity="0" result="BackgroundImageFix"/><feBlend in="SourceGraphic" in2="BackgroundImageFix" result="shape"/><feGaussianBlur stdDeviation="3.398" result="effect1_foregroundBlur"/></filter><filter id="filter4_dd" x="41" y="1" width="539" height="364" filterUnits="userSpaceOnUse" color-interpolation-filters="sRGB"><feFlood flood-opacity="0" result="BackgroundImageFix"/><feColorMatrix in="SourceAlpha" values="0 0 0 0 0 0 0 0 0 0 0 0 0 0 0 0 0 0 127 0"/><feOffset dy="1"/><feColorMatrix values="0 0 0 0 0.130051 0 0 0 0 0.186328 0 0 0 0 0.270742 0 0 0 0.2 0"/><feBlend in2="BackgroundImageFix" result="effect1_dropShadow"/><feColorMatrix in="SourceAlpha" values="0 0 0 0 0 0 0 0 0 0 0 0 0 0 0 0 0 0 127 0"/><feOffset dy="-4"/><feGaussianBlur stdDeviation="8.5"/><feColorMatrix values="0 0 0 0 0 0 0 0 0 0 0 0 0 0 0 0 0 0 0.03 0"/><feBlend in2="effect1_dropShadow" result="effect2_dropShadow"/><feBlend in="SourceGraphic" in2="effect2_dropShadow" result="shape"/></filter><filter id="filter3_f" x="43.49" y="326.391" width="533.019" height="68.031" filterUnits="userSpaceOnUse" color-interpolation-filters="sRGB"><feFlood flood-opacity="0" result="BackgroundImageFix"/><feBlend in="SourceGraphic" in2="BackgroundImageFix" result="shape"/><feGaussianBlur stdDeviation="8.155" result="effect1_foregroundBlur"/></filter><filter id="filter2_f" x="105.205" y="354.112" width="488.791" height="14.791" filterUnits="userSpaceOnUse" color-interpolation-filters="sRGB"><feFlood flood-opacity="0" result="BackgroundImageFix"/><feBlend in="SourceGraphic" in2="BackgroundImageFix" result="shape"/><feGaussianBlur stdDeviation="3.398" result="effect1_foregroundBlur"/></filter><filter id="filter0_f" x="66.205" y="350.205" width="488.591" height="16.591" filterUnits="userSpaceOnUse" color-interpolation-filters="sRGB"><feFlood flood-opacity="0" result="BackgroundImageFix"/><feBlend in="SourceGraphic" in2="BackgroundImageFix" result="shape"/><feGaussianBlur stdDeviation="3.398" result="effect1_foregroundBlur"/></filter></defs></svg>