<svg width="86" height="19" viewBox="0 0 86 19" fill="none" xmlns="http://www.w3.org/2000/svg"><path d="M1.133 18h10.055v-2.813H4.109V1.441H1.133V18zm15.375.234c1.394 0 2.637-.445 3.644-1.91L20.34 18h2.355v-7.102c0-2.859-1.875-4.851-5.062-4.851-2.309 0-3.797 1.031-4.922 2.566l2.191 1.582c.504-.855 1.407-1.652 2.754-1.652 1.512 0 2.309.984 2.309 2.473h-3.047c-2.625 0-4.664.843-4.664 3.386 0 2.45 1.851 3.832 4.254 3.832zm.41-2.414c-1.113 0-1.734-.55-1.734-1.324 0-.738.597-1.418 1.898-1.418h2.883c-.047 1.465-1.418 2.742-3.047 2.742zM25.754 18h2.836v-6.41c0-2.04 1.031-2.906 2.637-2.906 1.464 0 2.238 1.113 2.238 2.648V18h2.824v-7.031c0-2.45-1.172-4.922-4.242-4.922-1.149 0-2.52.457-3.457 1.605V6.293h-2.836V18zM46.766 1.441v6.024c-.809-1.008-2.11-1.418-3.328-1.418-3.247 0-5.028 2.86-5.028 6.094 0 3.27 1.781 6.093 5.074 6.093 1.301 0 2.59-.445 3.399-1.547L47.012 18h2.66V1.441h-2.906zm-2.59 14.204c-1.969 0-2.86-1.536-2.86-3.504 0-1.946.891-3.504 2.86-3.504 1.968 0 2.836 1.535 2.836 3.504 0 1.992-.867 3.504-2.836 3.504zM53.129 18h2.86v-3.434l1.804-1.992L61.227 18h3.375l-4.864-7.172 4.383-4.535h-3.715l-4.418 4.863V1.441h-2.86V18zM66.137 4.078h2.976V1.441h-2.976v2.637zM66.207 18h2.836V6.293h-2.836V18zm10.395.234c.808 0 1.675-.187 2.109-.351v-2.59c-.387.188-1.031.422-1.629.422-.75 0-1.324-.328-1.324-1.453V8.684h2.953V6.293h-2.953V1.348l-2.79 2.039v2.906h-1.933v2.39h1.887v6.083c0 2.132 1.371 3.468 3.68 3.468zM81.934 18h2.87v-3.094h-2.87V18z" fill="#335EEA"/><path d="M1.133 18h-.3v.3h.3V18zm10.055 0v.3h.3V18h-.3zm0-2.813h.3v-.3h-.3v.3zm-7.079 0h-.3v.3h.3v-.3zm0-13.746h.3v-.3h-.3v.3zm-2.976 0v-.3h-.3v.3h.3zm0 16.859h10.055v-.6H1.133v.6zm10.355-.3v-2.813h-.6V18h.6zm-.3-3.113H4.109v.6h7.079v-.6zm-6.779.3V1.441h-.6v13.746h.6zm-.3-14.046H1.133v.6h2.976v-.6zm-3.276.3V18h.6V1.441h-.6zm19.32 14.883l.298-.033-.09-.8-.456.663.247.17zM20.34 18l-.298.033.03.267h.268V18zm2.355 0v.3h.3V18h-.3zm-9.984-9.387l-.242-.177-.179.244.245.177.176-.244zm2.191 1.582l-.175.244.267.192.167-.283-.259-.153zm5.063.82v.3h.3v-.3h-.3zm0 2.063l.3.01.01-.31h-.31v.3zm-3.457 5.456c.729 0 1.436-.116 2.097-.435.664-.32 1.265-.835 1.794-1.605l-.494-.34c-.478.695-1.002 1.135-1.56 1.404-.56.27-1.172.376-1.837.376v.6zm3.346-2.176l.188 1.675.596-.066-.188-1.676-.596.067zm.486 1.942h2.355v-.6H20.34v.6zm2.655-.3v-7.102h-.6V18h.6zm0-7.102c0-1.496-.492-2.79-1.425-3.711-.933-.921-2.28-1.44-3.937-1.44v.6c1.53 0 2.715.477 3.516 1.267.8.79 1.246 1.921 1.246 3.284h.6zm-5.362-5.151c-2.422 0-3.994 1.093-5.164 2.689l.484.355c1.08-1.474 2.485-2.444 4.68-2.444v-.6zm-5.098 3.11l2.192 1.582.35-.487-2.19-1.582-.352.487zm2.626 1.49c.467-.793 1.284-1.504 2.495-1.504v-.6c-1.484 0-2.472.883-3.012 1.8l.517.305zm2.495-1.504c.688 0 1.177.221 1.498.579.325.362.51.9.51 1.594h.6c0-.795-.212-1.493-.663-1.995-.456-.507-1.12-.778-1.945-.778v.6zm2.309 1.873h-3.047v.6h3.047v-.6zm-3.047 0c-1.335 0-2.568.213-3.477.786-.93.587-1.487 1.533-1.487 2.9h.6c0-1.175.463-1.923 1.208-2.393.767-.484 1.866-.693 3.156-.693v-.6zm-4.964 3.686c0 1.307.497 2.35 1.331 3.063.829.708 1.966 1.07 3.223 1.07v-.6c-1.146 0-2.135-.33-2.833-.926-.692-.591-1.121-1.464-1.121-2.607h-.6zm4.964 1.118c-.51 0-.871-.126-1.098-.306a.878.878 0 01-.336-.718h-.6c0 .474.194.893.563 1.187.362.288.868.437 1.471.437v-.6zm-1.434-1.024c0-.284.113-.553.354-.756.244-.206.644-.362 1.244-.362v-.6c-.701 0-1.25.184-1.63.503a1.565 1.565 0 00-.568 1.215h.6zm1.598-1.118h2.883v-.6h-2.883v.6zm2.583-.31c-.041 1.286-1.262 2.452-2.747 2.452v.6c1.773 0 3.294-1.389 3.347-3.032l-.6-.02zM25.754 18h-.3v.3h.3V18zm2.836 0v.3h.3V18h-.3zm4.875 0h-.3v.3h.3V18zm2.824 0v.3h.3V18h-.3zm-7.7-10.348h-.3v.842l.533-.652-.232-.19zm0-1.359h.3v-.3h-.3v.3zm-2.835 0v-.3h-.3v.3h.3zm0 12.007h2.836v-.6h-2.836v.6zm3.136-.3v-6.41h-.6V18h.6zm0-6.41c0-.972.245-1.612.631-2.009.385-.395.955-.597 1.706-.597v-.6c-.855 0-1.604.231-2.136.779-.531.546-.801 1.36-.801 2.427h.6zm2.337-2.606c.648 0 1.119.242 1.434.636.322.402.504.99.504 1.712h.6c0-.814-.205-1.55-.636-2.087-.438-.547-1.086-.861-1.902-.861v.6zm1.938 2.348V18h.6v-6.668h-.6zm.3 6.968h2.824v-.6h-2.824v.6zm3.124-.3v-7.031h-.6V18h.6zm0-7.031c0-1.267-.302-2.566-1.028-3.557-.735-1.004-1.886-1.665-3.514-1.665v.6c1.443 0 2.412.575 3.03 1.42.628.857.912 2.019.912 3.202h.6zm-4.542-5.222c-1.22 0-2.684.484-3.69 1.716l.465.38c.87-1.067 2.148-1.496 3.225-1.496v-.6zM28.89 7.652V6.293h-.6v1.36h.6zm-.3-1.659h-2.836v.6h2.836v-.6zm-3.136.3V18h.6V6.293h-.6zm21.312-4.852v-.3h-.3v.3h.3zm0 6.024l-.234.188.534.665v-.853h-.3zm.117 9.223l.298-.03-.076-.78-.464.632.242.177zM47.012 18l-.299.03.027.27h.272V18zm2.66 0v.3h.3V18h-.3zm0-16.559h.3v-.3h-.3v.3zm-3.206 0v6.024h.6V1.44h-.6zM47 7.277c-.884-1.101-2.287-1.53-3.563-1.53v.6c1.162 0 2.361.392 3.095 1.306L47 7.277zm-3.563-1.53c-1.722 0-3.065.763-3.97 1.952-.898 1.182-1.357 2.773-1.357 4.442h.6c0-1.566.432-3.022 1.235-4.079.798-1.048 1.968-1.715 3.492-1.715v-.6zM38.11 12.14c0 1.685.459 3.277 1.365 4.455.911 1.186 2.267 1.938 4.01 1.938v-.6c-1.55 0-2.733-.66-3.535-1.703-.808-1.052-1.24-2.506-1.24-4.09h-.6zm5.374 6.393c1.365 0 2.759-.468 3.64-1.669l-.483-.355c-.735 1.002-1.92 1.424-3.157 1.424v.6zm3.1-1.817l.13 1.312.596-.058-.129-1.313-.597.059zm.428 1.583h2.66v-.6h-2.66v.6zm2.96-.3V1.441h-.6V18h.6zm-.3-16.859h-2.906v.6h2.906v-.6zm-5.496 14.204c-.896 0-1.52-.344-1.928-.893-.417-.561-.632-1.367-.632-2.311h-.6c0 1.024.231 1.97.751 2.669.53.71 1.336 1.134 2.409 1.134v-.6zm-2.56-3.204c0-.933.215-1.739.633-2.303.41-.553 1.032-.901 1.927-.901v-.6c-1.075 0-1.881.43-2.41 1.144-.518.7-.75 1.647-.75 2.66h.6zm2.56-3.204c.895 0 1.512.343 1.914.891.412.56.622 1.366.622 2.313h.6c0-1.023-.225-1.97-.738-2.668-.523-.712-1.325-1.136-2.398-1.136v.6zm2.536 3.204c0 .958-.21 1.763-.621 2.32-.402.544-1.018.883-1.915.883v.6c1.071 0 1.873-.416 2.397-1.126.515-.697.739-1.644.739-2.677h-.6zM53.129 18h-.3v.3h.3V18zm2.86 0v.3h.3V18h-.3zm0-3.434l-.223-.201-.078.086v.115h.3zm1.804-1.992l.254-.16-.211-.334-.265.293.222.201zM61.227 18l-.254.16.088.14h.166V18zm3.375 0v.3h.566l-.318-.468-.248.168zm-4.864-7.172l-.215-.208-.17.175.137.201.248-.168zm4.383-4.535l.216.208.491-.508h-.707v.3zm-3.715 0v-.3h-.133l-.089.098.222.202zm-4.418 4.863h-.3v.777l.522-.575-.222-.202zm0-9.715h.3v-.3h-.3v.3zm-2.86 0v-.3h-.3v.3h.3zm0 16.859h2.86v-.6h-2.86v.6zm3.16-.3v-3.434h-.6V18h.6zm-.077-3.232l1.804-1.992-.444-.403-1.805 1.992.445.403zm1.328-2.033l3.434 5.425.507-.32-3.433-5.426-.508.32zm3.688 5.565h3.375v-.6h-3.375v.6zm3.623-.468l-4.863-7.172-.497.336 4.863 7.172.497-.336zm-4.896-6.795L64.337 6.5l-.432-.417-4.382 4.536.431.417zm4.167-5.044h-3.715v.6h3.715v-.6zm-3.937.098l-4.418 4.863.444.404 4.418-4.863-.444-.404zm-3.896 5.065V1.441h-.6v9.715h.6zm-.3-10.015h-2.86v.6h2.86v-.6zm-3.16.3V18h.6V1.441h-.6zm13.309 2.637h-.3v.3h.3v-.3zm2.976 0v.3h.3v-.3h-.3zm0-2.637h.3v-.3h-.3v.3zm-2.976 0v-.3h-.3v.3h.3zM66.207 18h-.3v.3h.3V18zm2.836 0v.3h.3V18h-.3zm0-11.707h.3v-.3h-.3v.3zm-2.836 0v-.3h-.3v.3h.3zm-.07-1.915h2.976v-.6h-2.976v.6zm3.276-.3V1.441h-.6v2.637h.6zm-.3-2.937h-2.976v.6h2.976v-.6zm-3.276.3v2.637h.6V1.441h-.6zm.37 16.859h2.836v-.6h-2.836v.6zm3.136-.3V6.293h-.6V18h.6zm-.3-12.007h-2.836v.6h2.836v-.6zm-3.136.3V18h.6V6.293h-.6zm12.804 11.59l.106.28.194-.073v-.207h-.3zm0-2.59h.3v-.479l-.43.209.13.27zm-2.953-6.61v-.3h-.3v.3h.3zm2.953 0v.3h.3v-.3h-.3zm0-2.39h.3v-.3h-.3v.3zm-2.953 0h-.3v.3h.3v-.3zm0-4.945h.3V.757l-.477.348.177.243zm-2.79 2.039l-.176-.242-.123.09v.152h.3zm0 2.906v.3h.3v-.3h-.3zm-1.933 0v-.3h-.3v.3h.3zm0 2.39h-.3v.3h.3v-.3zm1.887 0h.3v-.3h-.3v.3zm3.68 9.851c.844 0 1.747-.194 2.215-.37l-.212-.562c-.4.151-1.23.332-2.003.332v.6zm2.409-.651v-2.59h-.6v2.59h.6zm-.43-2.86c-.37.179-.967.392-1.499.392v.6c.663 0 1.355-.256 1.76-.452l-.262-.54zm-1.499.392c-.338 0-.58-.075-.738-.224-.155-.145-.286-.414-.286-.93h-.6c0 .61.156 1.068.475 1.368.316.296.737.386 1.149.386v-.6zm-1.024-1.153V8.684h-.6v5.578h.6zm-.3-5.278h2.953v-.6h-2.953v.6zm3.253-.3V6.293h-.6v2.39h.6zm-.3-2.691h-2.953v.6h2.953v-.6zm-2.653.3V1.348h-.6v4.945h.6zm-.477-5.188l-2.79 2.04.355.484 2.789-2.04-.354-.484zm-2.912 2.282v2.906h.6V3.387h-.6zm.3 2.606h-1.934v.6h1.934v-.6zm-2.234.3v2.39h.6v-2.39h-.6zm.3 2.69h1.887v-.6h-1.887v.6zm1.587-.3v6.083h.6V8.684h-.6zm0 6.083c0 1.132.365 2.084 1.067 2.751.7.666 1.701 1.017 2.913 1.017v-.6c-1.098 0-1.937-.316-2.5-.852-.56-.533-.88-1.316-.88-2.316h-.6zM81.934 18h-.3v.3h.3V18zm2.87 0v.3h.3V18h-.3zm0-3.094h.3v-.3h-.3v.3zm-2.87 0v-.3h-.3v.3h.3zm0 3.394h2.87v-.6h-2.87v.6zm3.17-.3v-3.094h-.6V18h.6zm-.3-3.394h-2.87v.6h2.87v-.6zm-3.17.3V18h.6v-3.094h-.6z" fill="#335EEA"/></svg>