<svg viewBox="0 0 803 662" fill="none" xmlns="http://www.w3.org/2000/svg"><path d="M207.979 612.772l1.346-.686a27.64 27.64 0 01-1.764-.134l.418.82zm229.248-123.424l-.897.456c.99-.035.302.316.897-.456zm-172.982 89.124c.519-.921.058-.593.036-1.004-.016.336-.024.669-.036 1.004zm72.053-36.713c.02-.339.035-.675.055-1.014-.53.082-1.055.163-1.566.282.51.257 1.001.476 1.511.732zm-2.25 1.147l-.608-1.193c-.248.268-.469.568-.695.871.434.107.865.216 1.303.322zm-107.79 53.419l-.904.461c.994-.037.309.312.904-.461zm55.788-27.44c1.092-.744.458.283 1.161-1.06.225-.303.451-.605.695-.871-.831.236-1.651.466-2.463.739l.607 1.192zm-53.742 25.882c.161-.41.31-.862.478-1.276l-.896.457.418.819zm-13.482 5.837c-.015.336-.016.712-.032 1.049.523-.97.033-.58.032-1.049zm105.623-54.334c1.371.85 1.495.974 2.131 1.964.618-.643 1.24-1.289 1.851-1.928-.594-.073-1.181-.102-1.764-.134.312-1.66-.773-.497-2.218.098zm-46.215 25.096l.209.41c1.781-.954.539-.275 2.045-1.558a28.897 28.897 0 01-.289 1.648c2.072-1.478 1.282-1.263 1.672-3.385-1.029.196-2.066.396-3.114.554.168 1.885.444.854-.523 2.331zm-54.277 28.172c-.189-.748-.401-1.532-.597-2.276l.147 2.505.45-.229zm36.99-20.912c.549-.937.052-.543.033-1.049.003.374-.017.712-.033 1.049zm217.314-111.243l.442-.226c-.142.448-.31.863-.478 1.277.019-.339.035-.675.036-1.051zm-.105 3.15c2.267-1.765 2.4-1.504 1.243-4.246-.809.271-1.632.503-2.441.774.125 2.424.935 1.448 1.198 3.472zm-7.619 2.85c.02-.338.017-.712.036-1.051.804.107 1.616.21 2.427.312-.831.236-1.658.47-2.463.739zm-2.913.968c-.282-.185-.586-.405-.868-.59l.904-.461c-.019.339-.016.713-.036 1.051zm.775-2.929c-.616 1.769-4.132 3.044-5.488 4.815.494.592.984 1.187 1.475 1.782 2.179-1.674 1.766-1.416 4.054-2.066a29.59 29.59 0 01-1.504-.735c1.407-.201 2.813-.401 4.208-.643-.868-.214-1.755-.466-2.616-.684 1.616-.167 3.247-.294 4.87-.465.392-1.419.178-.277-.164-1.417.168-.414.318-.866.486-1.28 1.129 1.02 1.029 1.118 2.375 1.323l-1.234-2.421c1.53.629.306-.062 1.286 1.41l1.382-1.737c-5.082.103-5.656 1.662-9.13 2.118zm-63.096 33.135c-.425 1.014-.379.193-.852-.551l-1.8.917c.023 1.49.265.475-.297 1.652.989.857-.241.686 1.53.769-.015.337-.035.675-.032 1.049.486-1.28.965-2.556 1.451-3.836zm-28.775 13.676c-1.383 1.362-2.75 2.762-4.132 4.123l-.626-1.229c-.113 1.277-.241 2.515-.342 3.787.678-.205.608-.498.643.141 1.662-1.832 1.13-.622.534-2.289 1.597-.251 1.494-.949 3.331-.149 3.657-1.347 3.951-1.027 3.215-3.703 1.547.902.811 1.417 2.186.951 0 0 .583.032.486-1.28.804.107 1.615.209 2.408.275-.121-1.018-.957-.498.044-1.008-.688-2.84-4.905-.551-7.747.381zm-6.594 4.861c-.362-.332-.719-.665-1.062-.96l.608 1.192.454-.232zm-34.386 16.02l1.234 2.421-1.941-1.592c-.507.117-1.036.2-1.547.319.243 1.847-.088 1.077 1 3.057l-.45.229-1.707-2.227c-1.713.638-1.853.85-4.244 1.693.085 1.693-.163.599-1.611 1.29 1.39.512 2.769.982 4.159 1.494.659-1.18.726-1.637.763-2.97l.447-.227c.33 1.614.614.672-.27 1.686.357.334.719.666 1.057.962 1.329-1.005.9-1.021 2.463-.738.696-1.246 1.69-1.565 2.576-3.847-.133-.636-.249-1.233-.382-1.87-.51.12-1.036.2-1.547.32zm-13.839 9.584c-.946-.643-.628-1.04-1.921-1.554a162.294 162.294 0 00-.358 3.748c2.319.883.017-.15 2.652-.366-.795-.44-1.587-.881-2.382-1.32 1.04.174 2.057.313 3.089.491.934-1.79-.446-1.087 1.592-1.327-.113-1.867-.764-.691.068-2.1-.361-.332-.718-.666-1.061-.961-1.627 1.956-.937 1.838-1.679 3.389zm-20.261 10.324l-.626-1.229 1.321.359-.695.87zm15.825-10.128c-.47 1.366-.048-.022-1.591 1.327-1.124.948-1.019.566-.511 2.325-2.134-.086-.647-.092-2.255 1.149a125.45 125.45 0 00-.147-2.506c-.652.192-1.331.35-1.99.545a28.78 28.78 0 00-.289 1.649c-1.584-.46-2.143.575-3.46 2.231.019-.009.045.025.06.017a8.354 8.354 0 01-.133.068c-.463.564-.999 1.213-1.699 1.898.676-1.846-.522-.766 1.699-1.898.029-.015.044-.069.073-.085-2.296-.847-3.782-.231-3.295 1.21-1.974-.167-.457.75-1.958-.503-4.63 2.969-3.599 2.068-6.184 5.684l-.121-2.472-2.25 1.147a66.853 66.853 0 00-1.647 2.34s-7.858 3.3-9.426 3.771c-.15.452-.318.866-.487 1.28.659.18 1.322.359 1.981.54.361.332.718.665 1.061.96.172-1.308 0-.845-.374-1.827 1.124-.526 2.515-.812 2.496-1.788 1.501.455.712.294 1.932 1.549 3.747-3.129 1.785-2.41 6.06-2.571-.547-.706-1.117-1.448-1.687-2.19 4.194 1.382 4.542-1.282 6.638-.332.391-1.56.251-.363-.575-2.242 2.933.524 9.686-3.95 10.279-3.219.503-1.054.272-1.875.775-2.929.027 2.286 6.912-1.692 9.13-2.118-.116-.598-.249-1.234-.366-1.832-.586-.405-1.153-.773-1.739-1.178zm-48.378 24.181c-.015.336-.035.675-.044 1.007.247.016.475-.007.702-.029.071-.082.126-.204.203-.291-.443-.713.413-.304-.861-.687zm185.187-90.791c0-.376.016-.713.036-1.051l.442-.226c-.157.409-.329.825-.478 1.277zM427.8 493.119l-.209-.41.937-1.51-.728 1.92zm-6.992 4.079c-.06-.486-.116-.974-.176-1.459l1.522.772-1.346.687zm-1.351.687c-.01-.37.01-.708.029-1.047l.45-.229c-.168.414-.337.829-.479 1.276zm-8.53 3.314l-.417-.819c.792.534.499-.114.417.819zm44.207-24.588c.752 1.071.905 1.603.345 2.921.271-1.593-.349-.574-1.764-.134.526-.456 1.064-.871 1.591-1.327-.282-.185-.567-.368-.871-.588-2.747 1.681-1.142 1.051-2.521 2.833.016-.337.017-.713.025-1.046-1.874-.405-.979 1.766-2.218.098l-.72 1.916c-1.726 1.302-.559 1.082-2.426-.312-2.613 1.19-1.729 1.021-4.245 1.693-.261.978-.522 1.955-.775 2.929 1.263-.409.048-.494 1.559-.278-2.957 1.507-1.397-.462-4.263 1.656.321-.492.619-1.02.932-1.508.016-.337.036-.675.033-1.049-.507.118-1.029.196-1.536.314-1.668 2.116-4.627 3.296-8.559 4.361.939 1.117.961 1.528-.113 3.108.101-.897.213-1.798.303-2.735-1.908 1.019-2.154.158-2.287 2.197l-.607-1.192c-4.389 5.051-9.687 5.357-15.153 9.222.096-.565.188-1.128.289-1.649a196.854 196.854 0 00-3.444 3.256c-.231-.023-1.864-.129-1.141 1.098l-3.276-.865a9.837 9.837 0 00-.687.867c1.5.221.289.134 1.536-.314-.394.717-.787 1.434-1.174 2.147-.056-.488-.116-.973-.172-1.461-2.216 2.162.169 1.509-2.564 3.887.357.334.718.666 1.057.963 1.591-1.374 4.958-3.512 5.211-3.125 1.435-1.34.687-1.475.523-2.33l1.8-.918c-.299 1.373-.093.939-1.174 2.147 1.734.618 1.24.025 3.754-.411-1.897-1.379-.111-.788-.33-2.882l.897-.457 1.025 2.012c1.731-1.211 1.773-1.091 1.438-2.751 2.293-.887 8.859-.103 9.913-5.051l.446-.227c-.036.675-.045 1.383-.08 2.058 1.94-.753.475-.805 2.009-.507-.217-1.344-.184-.61-1.27-1.37 2.934-.651 2.997-1.199 5.774-.925.169-.414.33-.825.498-1.239 1.119-2.448.468-.849 3.608-1.839a28.831 28.831 0 00-1.775-.127c2.854-1.36 6.911-2.63 9.375-2.759.109-.9.221-1.802.322-2.698 4.412.52 9.861-5.494 12.742-3.959.775-1.568.829-.938.112-3.107.586.405 1.153.773 1.739 1.178.215-1.657-.706-1.423-1.208-3.466-.84.569-1.668 1.178-2.503 1.745zm-178.131 91.278l.447-.228c-.354-.336-.693-.632-1.054-.964-.016.336-.036.675-.052 1.011.225.074.453.145.659.181zM486.947 458.9c-2.343 1.756-1.937 1.55-4.505 2.295.707 1.47.645.328-.08 2.058-.06-.485-.098-.936-.158-1.421-2.212 1.69-2.339 2.13-4.504 2.295-.486.904-.956 1.848-1.434 2.748l.835 1.64c1.531-.546 2.291-.699 3.392-2.245.92-1.172.256-.177-.627-1.229 2.15.265 1.292-.095 2.391 1.363 2.403-3.008 3.064-4.893 4.654-6.454 0-.375.016-.712.036-1.05zM261.001 576.558l1.801-.917c-1.09 1.447-.016.852-1.801.917zm-2.225.102l.454-.232c.358.334.719.666 1.077 1-1.291-.28-.331.169-1.531-.768zm13.723-6.476c-.938.431-.098.003-.487 1.28l.418.82a126.846 126.846 0 01-1.941-1.592l-2.25 1.146c.51.256 1.02.513 1.523.773-2.348.633-1.143-.028-2.697 1.374.101-.896.213-1.798.322-2.698-.557.847-1.156 1.668-1.635 2.475.046.071.117.175.2.273-.13.02-.253.036-.403.018-.431.736-.742 1.458-.77 2.129-1.714-.769-1.254-1.144-2.636-.722-1.198-.328-1.993.171-3.765.417-.227 2.931.578 1.724-.808 3.978-1.909-.998-.602-1.429-1.94-1.592l-1.303-.322c-.688.867-1.402 1.7-2.089 2.566-.419-.443-.852-.926-1.27-1.37-.282 1.129-.439 1.115-1.193 2.109 1.611.634 1.238.214 1.523.773 1.249.63 7.873-1.9 12.983-4.551l.011-.006-.011.006c3.455-1.808 6.227-3.642 6.14-4.677 1.615.678.815.617 1.984.538.891-1.111.896.012.72-1.916 1.095-.793.832-.095 1.383-1.737-1.599.017-.592-.167-2.009.508zm-24.316 12.389c-4.02-.11-4.838 3.544-7.366 2.252-.393.341-.771.721-1.138 1.096l1.234 2.421c.351-.038.728-.042 1.105-.047l-1.044-2.049c1.53.629.306-.062 1.286 1.41.816-1.636.908.053.723-1.917 1.026.697 1.386-.049.627 1.229l.209.41c1.782-1.753 1.153-.541.522-2.331 2.218-.098.901-.365 1.728 1.184 2.022-.842 1.992-1.249 3.557-.827 1.639-2.806-.931-1.027 2.089-2.566-1.447-.623-2.901-1.243-4.348-1.867l.816 1.602zm-52.641 25.837c.511-.119 1.029-.196 1.54-.315l.505-1.243c-.526.08-1.056.162-1.566.282l-.479 1.276zm30.17-15.372c.226-1.148.027-.812-.173-1.461.057.487.117.973.173 1.461zm137.216-72.496c.136.634.249 1.233.385 1.868.214-1.188.772-1.05-.385-1.868zm-147.78 77.362c.374-.378.752-.758 1.145-1.1-1.214-.929-.228-.493-1.53-.768.285.183.586.405.871.588l-1.775-.128c.437.481.851.927 1.289 1.408zM504.54 448.903c-2.534.728-2.343.771-1.617 2.372-.336.5-8.912 3.134-9.185 3.132-.331 1.154-5.623 6.197-7.358 7.831.282.185.586.406.868.591-.245.265-.47.567-.695.87 3.347-2.644 3.409-2.864 5.469-4.852-.168.414-.318.866-.479 1.276 1.732-1.586 1.535-1.016 1.23-3.16 3.933-1.3 4.681-1.634 7.113-1.606.537-1.494.715-.694.333-2.704l.893-.455c.06.486.108.93.164 1.418 1.624-.124 3.242-1.933 5.003-3.534.937.836.694-.542 1.382-1.737-1.33-.026-2.652-.01-3.982-.036.301.222.587.405.861.594zm-78.809 40.155c.549-.937.033-.58.033-1.049.003.374-.017.712-.033 1.049zm-149.274 75.543l-.209-.41-1.346.686c1.438.487.039.215 1.555-.276zm233.736-119.095a18.365 18.365 0 01-.871-.588l.417.82c-2.077.824-1.779.249-1.383 1.736l-.903.461c2.793.36 3.688-1.129 4.54-3.346l2.845 1.132-.418-.82c.226-.302.47-.568.688-.867-2.437-1.011-3.083-.634-4.915 1.472zM312.036 546.473l-1.315-.363c.354.336.712.67 1.073 1.002.073-.225.169-.414.242-.639zm-4.505 2.295c.169-.414.337-.829.486-1.28l-1.052.536a2.78 2.78 0 01-.076.32l.642.424zm208.36-107.666l-.992 2.523c.943-1.56.768.312 1.285 1.41 1.743-2.484 1.834-1.873 1.053-4.619l-1.346.686zm-25.223 12.852c.041.448.101.934.157 1.421 1.205-1.552.679-.018.739-1.878l-.896.457zm-31.525 16.062c-.015.336-.035.675-.051 1.011.678-.158 1.357-.315 2.009-.507l-.607-1.192-1.351.688zm-16.056 9.683c.698-.497 1.366-1.025 2.045-1.559l-1.302-.321-.707.829c-.001.376-.017.712-.036 1.051zm-124.45 61.909l.816 1.601c.37-.376.764-.717 1.141-1.097-.662-.179-1.321-.359-1.957-.504zm-18.018 9.18c1.397.508 1.415.405 3.311-.185l-1.112.05c.363-1.64-1.45-.059-2.199.135zm197.948-101.376l2.199-.135-.189-.372c-.679.158-1.35.312-2.01.507zm-18.31 10.831c.095-.189.168-.414.245-.64l-1.303-.322c-.095.189-.168.414-.245.641l.19.372 1.113-.051zm-7.363 2.25c-.019.338-.035.675-.055 1.014.755-.009 1.49-.055 2.226-.102-1.511-.638-.759-.881-2.171-.912zm-149.57 77.196l1.357-.692-1.756-.091.399.783zm-8.131 5.175c-.055-1.286-.423-.207.479-1.277-.434-.107-.868-.214-1.295-.325-.244.265-.469.568-.695.87 1.184.898.232.492 1.511.732zm-27.228 13.357l.443-.226c-.362-.332-.693-.632-1.05-.966l.607 1.192zm206.793-107.384c-.244.265-.473.569-.699.872l1.306.32c.386-.337.764-.717 1.157-1.059-.602-.068-1.188-.098-1.764-.133zM276.336 562.129c.993-.037.301.315.896-.457l-.896.457zm-13.06 6.654c-.188.753-.346 1.537-.534 2.29 1.301-1.649.745-1.224.534-2.29zm-67.581 35.467c-1.609 1.477-1.334.914-1.438 2.75l1.836-1.968c.089-.561.204-1.089.285-1.647-.518.076-1.044.157-1.555.276.282.185.567.368.872.589zm65.99-34.14l1.346-.686c-.453-.145-.88-.256-1.314-.363-.016.337-.036.675-.032 1.049zm-68.871 34.059l-.695.87c.415.446.852.927 1.266 1.373.288-1.32.498-1.239-.571-2.243zm33.569-17.621c-.019.339-.016.713-.036 1.051l.904-.46c-.282-.185-.586-.406-.868-.591zm-9.912 5.051l-1.801.917c.679-.158 1.338-.353 2.009-.507l-.208-.41zm129.737-67.137l-.904.461c.989-.035.328.349.904-.461zm-83.803 43.732c.552-.938.036-.581.036-1.05-.001.375-.017.712-.036 1.05zm-7.929 5.589c1.672-1.462.989-1.02 3.399-2.248-2.063-.638-1.747.139-2.635-.722l-.238.121-.65.472c.036.779.072 1.558.124 2.377zm264.928-132.454c.015-.336.035-.675.032-1.048l.454-.232c-.15.452-.318.866-.486 1.28zm1.866-1.983l.038.075c.274.189.522.344.8.531-1.091-.43-.697-.209-.8-.531-.027-.034-.045-.024-.072-.058l.034-.017a1.661 1.661 0 00-.242-.392c-1.103.42-2.235.81-3.337 1.23.952 1.345.346.762.121 2.472 2.676-.19 2.716-1.336 6.06-2.571-.218-2-.964-.917.314-2.741.313.873-.467.52.417.82-.379 1.554 1.808.017 3.114-.555.415-1.384.353-.226-.626-1.229l6.305-3.212c-.709-.296-1.447-.624-2.167-.914 2.272-.782 2.21-.61 4.472-1.246l.278-1.69c-1.189-.098-2.358-.16-3.539-.262-.193 3.899-8.535 7.821-11.17 10.29zm.09-3.096l-.209-.41-1.775-.127 1.53.768.454-.231zM263.579 566.048c.219.78.408 1.528.601 2.274.5-.113 1.029-.196 1.555-.276l-2.156-1.998zm273.629-139.891c.444 3.106-1.253.31.085 3.523l1.358-.691c.214-.297.443-.602.684-.865-.282-.185-.583-.407-.868-.59-.198-1.307-.123-.829-1.259-1.377zm-156.274 79.626l-.904.461c.974-.074.309.312.904-.461zm-102.38 56.248c1.32.219 1.372-.23 3.106-.598a278.443 278.443 0 00-.55-3.286 94.154 94.154 0 00-3.304.182c-.71 1.347-.068.317-1.164 1.063.972 1.006 3.27.164 1.912 2.639zm-21.759 8.506c1.291.28.335-.171 1.53.768 1.161-.544.506-.304 2.009-.507-1.235-1.295-1.867-1.864-2.847-1.928-.167.132-.318.303-.489.437-.071.412-.132.818-.203 1.23zm139.69-73.194l.608 1.192c-.119-1.207.875-1.243-.608-1.192zm68.398-33.865l.454-.231c-.342-.295-.7-.629-1.061-.961l.607 1.192zm-242.02 122.846c.523-.97.033-.58.033-1.049-.016.337-.036.675-.033 1.049zm21.648-12.062l-.447.227c-.888 2.33.092 1.221.539 3.292.622-.645 1.214-1.322 1.836-1.968-.728-1.881-.138-1.9-1.687-2.19-.036.675-.052 1.387-.08 2.058-.038-.45-.105-.932-.161-1.419zm295.125-154.457c.51.257 1.02.513 1.512.732-.982-.86.256-.647-1.512-.732zm29.061-15.323c.869.214 1.756.466 2.617.685-4.828.676-5.764 3.077-9.191 4.213-.367 1.36.551 1.221-.329 2.702 2.612.64 7.663-6.486 11.018-5.098.536-2.479-.35-1.605 1.869-3.017-2.78-1.023-2.394-.422-5.984.515zm-2.459.737c-.064-.061-.117-.128-.158-.154a.17.17 0 00-.131.019c.094.046.181.096.289.135zm30.082-18.894c.993-.037.328.349.904-.46l-.904.46zm6.421-6.322c.064.484.105.932.161 1.42a19.772 19.772 0 001.559-.278c-.69-1.667-.372-.28-.366-1.832l-1.354.69zm29.455-20.122l-.896.456c-.016.337-.036.675-.033 1.049 1.074-1.204.54-.274.929-1.505zm.278-1.69l-.278 1.69c.53-.082 1.037-.2 1.567-.282-.924-1.501.132-.678-1.289-1.408zm45.54-30.853c.226-.303.47-.568.696-.87.377-.005.735-.047 1.112-.051l-1.984-.538c.06.486.116.973.176 1.459zm80.916-86.135c.619-1.019 1.56-1.076.364-1.64-.022.058-.059.077-.1.098-.09.514-.175 1.027-.264 1.542zM116.404 565.536l-.904.461c.993-.037.309.311.904-.461zm-2.305 2.16l.505-1.243-.904.461.399.782zm-.696.871l-.398-.782-.896.456c.434.107.868.215 1.294.326zm-13.726-11.354c1.001-.04.309.312.904-.46l-.904.46zm687.778-365.784c.386-1.182.963-.538-.157-1.422.06.486.116.973.157 1.422zM89.23 546.723l-.627-1.229-1.35.688c.06.485.116.973.176 1.458.226-.302.451-.604.696-.87.358-.041.735-.046 1.105-.047zm-4.862-6.204c-.526.081-1.048.159-1.555.277 1.224.408.133.307 1.764.133l-.209-.41zm-2.042 1.557l.45-.23c-.357-.334-.719-.666-1.076-1l.626 1.23zm1.207-3.196c-.093.563-.185 1.127-.27 1.687.633-1.074 1.642-1.072.27-1.687zm-1.347.686c-.019.339-.016.713-.036 1.051l.904-.46c-.282-.185-.586-.406-.868-.591zm680.089-349.15l.102.089c.037-.066.022-.058-.102-.089zM80.567 535.277c-.452 1.309.072.526-1.39 1.74l.209.41.904-.461c.434.108.887.252 1.321.36.013-.335.01-.709.029-1.048l.278-1.689-1.351.688zM35.203 426.206c.003.374-.017.712-.033 1.049.282.185.586.405.868.59.218-.298.462-.564.687-.866-.044-.4-.096-.796-.148-1.192l-.563.006-.811.413zm-.21-.41l-.903.461c.993-.037.328.349.904-.461zm-1.928-1.551l-1.8.917c.285.184.586.406.871.589.31-.486.612-1.016.929-1.506zm-1.076-1c-.001.376-.017.713-.037 1.051l.904-.46c-.282-.185-.567-.369-.868-.591zm735.675-228.348c-2.364-.954-3.221-2.535-5.287-4.392-.026.06-.077.18-.086.513l-.417-.82c.187.139.307.172.401.218a19.024 19.024 0 00-2.33-1.769c2.984-1.004 4.048 1.222 6.188-.103.294 2.103.745.653-.538 2.292l2.251-1.147c.855 1.301 1.687 2.566 2.523 3.83-2.011.274-1.046-.03-2.705 1.378zm-9.458-7.429c.526-.08 1.037-.199 1.563-.279-1.289.938-.099.707-1.563.279zm-8.166 24.057c-.225.303-.459.562-.684.865l-.871-.589.245-.641c.377-.004.743-.003 1.101-.045l.209.41zm-3.147 1.604c.02-.339.036-.676.033-1.049l.446-.228c-.15.452-.31.862-.479 1.277zm-3.81 1.424l.045-1.007.453-.232c-.168.415-.336.829-.498 1.239zm-16.008-3.574c.02-.339.036-.675.037-1.051.019.554.55.142-.037 1.051zm16.067 44.885c.205-1.465.155-.267-.161-1.42l.45-.229c.123 1.298.678.171-.289 1.649zm-85.779-152.765c-7.552-1.782-13.137-11.84-20.215-9.595.245-.641.49-1.282.731-1.921-2.715.492-1.772.246-4.435.195-1.138-1.156-.045-.915-1.025-2.011 2.541-.31 24.972 6.702 27.71 9.859 0 0-.912 2.247-2.766 3.473zm.655.183c1.272.243.312-.206 1.511.731-.51-.256-1.001-.475-1.511-.731zm-14.582-6.365l-.626-1.23.443-.225c.067.481.123.969.183 1.454zm-12.166-6.049l-.627-1.23c.514.255 1.02.513 1.534.768l-.907.462zm87.758 177.799c.244-.266.47-.568.695-.871l1.347-.686c-.557 1.316-.408 1.334-2.042 1.557zM628.063 87.904c-.922 1.408-.069.692-1.8.917l1.8-.917zM669.7 331.058l-.453.231c-.113-.599-.249-1.234-.363-1.833.206.036.434.107.659.181.041.448.097.935.157 1.421zm-1.8.917l-.417-.819c.788.536.499-.114.417.819zm.173 1.461c.019-.339.016-.713.036-1.051.019.553.539.101-.036 1.051zm-1.555.276l-.836-1.639c.434.483.852.927 1.286 1.41l-.45.229zm-1.592 1.327c-.778-.073-.248-.624-1.559.279.085-.56.177-1.124.27-1.687.678-.158 1.357-.316 2.009-.507l-.72 1.915zm-.245.641c.511-.119 1.037-.2 1.559-.278-1.285.936-.091.703-1.559.278zm-7.498 5.322c-1.413-.594-.625-.151-1.27-1.371.438.106.872.213 1.325.358-.019.338-.035.674-.055 1.013zm-1.74 5.485l-1.801.918c-.265-.898-.522-1.752-.791-2.647-1.088.742-.847.572-1.833 1.966-.082-1.459-.132-1.059-1.072-1.002-.154-1.892.109-.853 1.591-1.327.252-1.63.189-.613-.571-2.243 2.047.412 2.092.905 3.243 1.914-.736.046-1.471.093-2.218.098 1.146.777 2.299 1.55 3.452 2.323zm-2.741 2.429l-.417-.82c.792.535.503-.115.417.82zm-3.206-2.965c-1.274.462-2.897 2.04-2.133 3.621-2.028-.844-.956-2.188-1.388-3.845 1.12-.054.937-.101 1.548-.319a89.274 89.274 0 01-.853-.551c.359-.042.728-.042 1.106-.047.225-.302.45-.605.695-.87l1.025 2.011zm.023 5.619c-1.427-.493-.992-.714-1.948-1.588l2.021-.513c-.021.714-.056 1.389-.073 2.101zm-1.138 1.096c-1.434-.067-2.641.361-4.263 1.656.764-2.031.688-2.181 1.862-3.013l-.418-.819 1.984.537.835 1.639zm-6.364-1.356c-1.402-.552-.359-.051-1.08-.998-.47.568-.913 1.169-1.383 1.737L638.51 350l1.35-.688c.963.401 1.908.765 2.845 1.132-1.058.398-.439-.152-.688.866zm1.406 3.882c-3.641 4.202-10.587 4.785-11.646 10.533l-2.156-1.998.802 2.688c-2.089-1.094-.564-1.402-2.427-.312-1.167-2.503.578-1.139-2.13-1.965 1.933-.75.628-.414 2.642-.36l-.816-1.602c.964.025 1.924.052 2.88.081-.355-1.931-.855-.503.728-1.92-1.526-.254-.296-.13-1.563.28a13.52 13.52 0 01-.864-.592c1.048-.159 2.085-.358 3.114-.554-.411-.964-.357-1.273-.339-2.643-.153-.016-.348-.057-.527-.06-.576.341.22.358-1.026.101a12.2 12.2 0 011.026-.101c.119-.061.287-.099.536-.179.001.093-.006.144-.009.239 1.971.216 2.793 1.674 3.22 2.723.929-1.505 1.869-3.016 2.798-4.522.377-.005.754-.009 1.113-.051l-.937 1.51c.659.18 1.322.358 1.981.539-1.023-.324-.164-.386.687-.866l-1.044-2.049c.663.178 1.322.359 1.984.537l-1.025-2.011.443-.226c2.04.509 1.328.308 2.555 2.78zm-19.417 5.295a354.68 354.68 0 002.199-.135l.209.41c-.905.836-1.817 1.63-2.74 2.429.112-.902.22-1.802.332-2.704zm2.452-.733l.904-.46c.285.183.567.368.852.551l-.94 1.511c-.492-1.767.446-.321-.816-1.602zm3.399-2.248c-1.288.938-.099.707-1.562.28.507-.117 1.036-.2 1.562-.28zm3.461-4.344l.446-.227c-.149.451-.31.862-.479 1.276.016-.337.036-.675.033-1.049zm2.664-.325c-.462.564-.913 1.169-1.383 1.737-.015-1.4-.018-.836-.385-1.869.606.067 1.189.099 1.768.132zm1.808-.921c.427.111.88.255 1.314.363-.169.414-.337.828-.479 1.276l-.454.231c-.132-1.575-.04-.824-.381-1.87zm3.871-3.521l.45-.229c-.15.451-.318.866-.479 1.276.019-.338.028-.671.029-1.047zm2.434.308c1.209 1.261-.552 1.079.835 1.64l.19.372c-.66.195-1.338.353-1.998.549.318-.866.655-1.695.973-2.561zm-.096-3.517c.494.593.984 1.188 1.478 1.78-.285-.183-.567-.368-.852-.551-.244.266-.47.568-.714.833.036-.675.052-1.387.088-2.062zm-17.89 23.897l-.608-1.192c.434.107.869.214 1.322.359-.245.265-.47.567-.714.833zm-6.792-1.091c-.795-.815-1.571-1.593-2.366-2.408.739.327 1.454.62 2.193.947.056.488.116.973.173 1.461zm-3.661-2.734c.218-.298.443-.601.688-.866l.454-.232c-.536 1.165.354.899-1.142 1.098zm.085 3.523c.169-.79.357-1.543.522-2.331l.443-.225c-.151 2.094.41.776-.965 2.556zm-2.005.506c.016-.337.012-.711.032-1.049l.454-.231c-.172.416-.322.867-.486 1.28zm-2.431-.311c.02-.338.036-.674.036-1.05.043.588.55.142-.036 1.05zm-1.137 1.097c.518-.077 1.029-.197 1.555-.277-1.289.938-.099.707-1.555.277zm-2.255 1.148c-.056-.487-.116-.973-.172-1.46l1.8-.918c-.546.795-1.089 1.587-1.628 2.378zm.594 2.278c-.06-.485-.116-.973-.176-1.458.881.818.338.25.176 1.458zm-.871-.588c-.225-.073-.434-.107-.659-.18l-.446.227c-.043-.166-.047-.258-.075-.385a7.2 7.2 0 01-.793-.205c.926-.003.745-.286.793.205.176.051.352.103.521.158l.45-.23.209.41zm-2.54 2.795l-1.8.918a94.558 94.558 0 00-.165-1.418c.286.183.567.368.872.588l.904-.46.189.372zm-.277 1.69c-.434-.107-.868-.214-1.314-.363l1.8-.917c-.149.452-.318.866-.486 1.28zm-4.263 1.656l1.35-.688c-1.06 1.057.126.781-1.35.688zm-2.009.508c.092-.564.204-1.09.296-1.653.351-.038.728-.042 1.105-.047.041.449.098.936.158 1.422-.504.115-1.03.196-1.559.278zm-1.174 2.146c-.718-1.37.543-.229-.382-1.87l1.314.363c-.321.492-.611 1.015-.932 1.507zm-1.739-1.178l-.608-1.192.454-.231c.056.487.116.973.154 1.423zm-.512 2.325l-1.025-2.011c.64.143 1.295.325 1.954.506-.317.49-.612 1.015-.929 1.505zm-.185 5.209c-.847.572-1.668 1.178-2.495 1.788l-.418-.82-.896.457c.736-1.36-.421-.771 1.141-1.098-.06-.485-.116-.973-.176-1.458 1.813.202.712-1.114 2.672-.329-.148.732-.693.305.172 1.46zm-5.798-4.694l.19.372c-1.509.488-.047.634-1.536.314l1.346-.686zm1.061.961c.586.405 1.153.773 1.739 1.178.282.185.567.368.842.557-.275-.189-.56-.372-.842-.557-1.316-.127-1.107.752-1.739-1.178zm-3.27 4.716c-.805.27-1.632.503-2.444.776-.301-.222-.586-.405-.861-.594 1.478-.236-.042-1.104 1.347-.686.407-1.38.007-.989-.148-2.505l1.358-.692c-.041 1.335.016 2.385.748 3.701zm-4.904 1.513l.695-.87.45-.229c-.543 1.168.359.896-1.145 1.099zm-1.072-1.002l.446-.227c-.161.41-.31.862-.479 1.276.016-.336.017-.712.033-1.049zm.385 1.869c-.245.265-.47.568-.714.833a30.882 30.882 0 01-.846-.555c.066-.221.143-.448.238-.637.358-.042.736-.047 1.113-.051l.209.41zm-3.656 2.848c-.189-.748-.382-1.495-.571-2.243.728-.043 1.463-.089 2.217-.098-.546.795-1.111 1.552-1.646 2.341zm-2.174-.91c.02-.339.02-.714.036-1.051l.45-.229c-.164.412-.314.864-.486 1.28zm-4.409 5.812l-1.591 1.327c-.06-.485-.116-.973-.176-1.459.529-.082 1.036-.199 1.559-.278l.208.41zm-3.359 1.196c-.056-.488-.116-.973-.172-1.461l.442-.225a136.71 136.71 0 01-.27 1.686zm-.695.87c-.535.789-1.081 1.583-1.624 2.376-.394-1.536-.737-1.032-2.149-2.002 1.46-.463 1.865-1.185 3.564-.784-.526.081-1.029.196-1.555.276 1.177.527.184 1.033 1.764.134zm-5.433 3.801l-.627-1.229c1.291.28.331-.169 1.531.768l-.904.461zm-.743 1.88c.019-.339.035-.675.047-1.01l.45-.229c-.168.414-.329.825-.497 1.239zm-1.475-1.783l-.418-.819c.774.497.492-.11.418.819zm-.535 2.29c-.225.303-.45.606-.694.871.055-1.014.087-2.063.116-3.11.189.749.389 1.491.578 2.239zm.053 4.572l.454-.231c.358.334.719.666 1.076 1l-2.25 1.147-.209-.41c1.081-1.208.559-.237.929-1.506zm-3.243-1.914c.719.666 1.438 1.332 2.138 1.961l.209.41c-1.054.912-2.119 1.783-3.183 2.654.27-1.686.566-3.339.836-5.025zm-3.296 5.762a18.365 18.365 0 01-.871-.588c.47-.568.932-1.132 1.402-1.7l1.302.322.209.41c-1.692.909-.834.284-2.042 1.556zm-4.93-4.104c.728-.042 1.463-.089 2.218-.098.041.448.097.936.157 1.422-1.901-.393-.451.511-2.375-1.324zm2.314 3.42l-.418-.82c.763.503.492-.11.418.82zm1.713 1.145l-.479 1.276c-.229-.071-.434-.108-.663-.179.02-.338.036-.675.036-1.05l.897-.457.209.41zm-1.085-6.58l.45-.229.626 1.229c-.453-.145-.887-.252-1.321-.359.076-.227.168-.414.245-.641zm2.379 1.322c1.438.487-.093.047.176 1.458-1.719-.954-.529-.246-1.234-2.421 1.383.515.329.02 1.058.963zm.984-2.519c.728-.043 1.463-.089 2.217-.098l-.903.46c.285.183.567.368.852.551l-2.408-.274c.073-.225.15-.452.242-.639zm-5.011 10.202c-1.164-1.191-.153.03-.579-2.24 1.616.256.559.279 1.72 1.142-1.148.772-.18-.096-1.141 1.098zm1.712 1.145l-.398-.783c.773.498.484-.153.398.783zm-8.555 4.359c.337-.829.655-1.695.984-2.519.951-1.517 2.148-.861 3.146-2.589l-.618-.248c.228.071.453.144.663.179-.007.05-.022.057-.045.069l2.226.884c-3.179.775-4.373 1.946-6.356 4.224zm3.363-1.198c.02-.338.036-.675.055-1.013l.443-.226-.498 1.239zm-1.805-4.664l.443-.226.607 1.193c-1.427-.447-.192.192-1.05-.967zm1.138-1.096c.586.03 1.169.061 1.768.132-1.141.768-.181-.096-1.161 1.06l-.607-1.192zm.515-2.327c.244-.265.469-.568.695-.87l.45-.23c.781 1.432.367.564 1.94 1.592-.876.119-1.783.206-2.667.328l-.418-.82zm-7.691 4.951c-.057-.487-.117-.973-.173-1.461l.454-.231c.119 1.301.693.211-.281 1.692zm-.113 3.108l-.454.231c-.206-.036-.43-.109-.659-.181.02-.338.036-.674.052-1.011l.907-.463c.057.488.098.936.154 1.424zm-2.789-2.145l.442-.226c.362.332.719.666 1.077 1-.241.263-.47.568-.684.865l-.835-1.639zm.739-1.879l-.948 1.469c-.361-.332-.704-.627-1.061-.961 1.485-.147.869-.115 2.009-.508zm-9.158 8.749c.639-2.156.494-.299-1.012-3.098.229.071.454.145.663.179 1.623.205-.288.85 2.182.953a59.41 59.41 0 00-1.833 1.966zm-.952 1.471c.305.22.586.404.872.588-1.569.94-.289.71-1.775-.128l.903-.46zm-4.388-.815c.812.103 1.623.206 2.427.312-1.992.311-.93.474-2.427-.312zm.093 3.519c.434.108.887.252 1.314.363-.58 1.234-.606.356-1.314-.363zm-3.572.788l.051-1.012c.286.183.567.368.853.551l-.904.461zm-2.247 1.145c-.849-.553-1.72-1.142-2.588-1.732 2.654-1.118 1.464-.089 2.704-1.378-.036 1.051-.068 2.1-.116 3.11zm.446-.228c.016-.336.036-.675.052-1.011l.454-.232-.506 1.243zm-2.106 3.654c-1.036-.176-2.05-.316-3.086-.492-.097-.936-.213-1.909-.337-2.878.756 1.116.953.5.389 1.866 2.788 1.16 2.272-.266 4.384.816l-1.35.688zm-4.26 1.655c1.517-.022 1.105-.517 2.877.082-.96-.027-1.924-.052-2.877-.082zm-.087 2.062l-2.255 1.148c.261-.977.522-1.955.776-2.929.434.108.887.252 1.321.359.06.486.117.974.158 1.422zm-5.172-3.465l.45-.229a20.74 20.74 0 00-.479 1.276c.001-.376.017-.712.029-1.047zm-2.456.735c.58.033 1.181.102 1.768.131-1.616.167-.539.275-1.768-.131zm2.677 5.253c-.113-.6-.257-1.23-.37-1.83.434.108.868.215 1.321.359-.321.492-.638.982-.951 1.471zm1.378-7.319l.442-.225c-.161.41-.31.862-.479 1.276.02-.339.017-.712.037-1.051zm-3.376 7.867c.001-.376.017-.712.036-1.051l.904-.46c-.401 1.236.16.294-.94 1.511zm-1.555.277l-1.35.688-.418-.82c.378-.38.764-.718 1.141-1.098l.904-.461-.277 1.691zm-2.314-3.42c.434.107.868.214 1.321.359l-1.346.686c-.011-.37.009-.709.025-1.045zm-1.411 8.367l-.417-.819c-.108 1.885-.491-.688-.816-1.602l1.357-.692a138.64 138.64 0 00-.124 3.113zm-2.756-3.194l-.817-1.602c.419.444.852.927 1.27 1.371l-.453.231zm-1.801.917l-.626-1.229c.53-.082 1.048-.158 1.559-.278a29.394 29.394 0 01-.933 1.507zm-.871-.588c-1.434-.442-.189.19-1.058-.962l.451-.23.607 1.192zm-3.878 3.525c-.679.158-1.331.349-2.009.507l-.627-1.229 1.351-.688c.727 1.271-.351.507 1.076 1l.209.41zm-1.496 4.844c-.529.082-1.036.2-1.566.282.394-.717.787-1.434 1.174-2.147l1.113-.05c-.242.639-.487 1.28-.721 1.915zm-3.487-1.273c-.454-.144-.888-.251-1.322-.359.077-.226.168-.414.245-.641l1.8-.917c-.245.641-.478 1.276-.723 1.917zm.12 2.472c-1.922-.287-1.748-.939-2.13-1.964.656.182 1.314.363 1.958.504.056.487.116.973.172 1.46zm1.95-5.075c-1.347.217-2.189.505-3.323.144l3.323-.144zm.626 1.229l-.417-.819c.773.497.503-.116.417.819zm-7.41 3.259c-.393.342-.771.722-1.137 1.097.154-1.674.324-1.01.061-2.096l.45-.23.626 1.229zm-3.721 4.946c-1.107-.186-1.795-.774-2.825-1.094-.871-.495-1.344.544-3.114.555.711.67 1.411 1.298 2.13 1.964a18.365 18.365 0 01-.871-.588l-1.347.686-.121-2.472c-.53.082-1.037.2-1.567.282 3.849-1.21 4.557-1.43 8.073-3.081-.431 2.472-1.296 1.833-.358 3.748zm-7.41 3.26c.016-.337.036-.675.033-1.049l.896-.457-.929 1.506zm-1.321-.359l.418.82-1.106.046c-.225.303-.451.606-.695.871l-.993-3.061 1.351-.688 1.025 2.012zm-4.244 1.693l-.897.457c.085-.56.178-1.123.27-1.686 1.683-.247.862-.111 2.009-.508-.604 1.481.787 1.148-1.382 1.737zm-4.413 5.814c-1.455.648-.066.551-1.555.277 1.277-.041.669-1.749.756-2.966.998.524-.031.25.799 2.689zm-4.922 1.476l-.117-2.474c-1.292.94-.552-.329-1.168 1.064l-.443.226c.023-1.795.48-1.699 1.226-3.159 1.476.562.93.981 1.234 2.422.462-.564.932-1.132 1.401-1.7-.714 1.209-1.418 2.413-2.133 3.621zm-.892.455l-.627-1.229.443-.226c.056.488.124.97.184 1.455zm2.842-5.53l.904-.461c-.39 1.231.163.293-.929 1.506 0-.376.016-.713.025-1.045zm-8.463 7.878c.019-.339.035-.675.036-1.051l.45-.229c-.149.451-.318.866-.486 1.28zm-7.443 4.308c-.228-.071-.434-.107-.662-.178-.057-.488-.117-.973-.173-1.461a42.302 42.302 0 002.218-.098c-1.61.961-.575.012-1.383 1.737zm-4.681.837c-.056-.488-.097-.936-.153-1.423.602 1.007.623.01.153 1.423zm-2.371-1.326c.008-.333.009-.708.025-1.045l.454-.231c-.169.414-.318.866-.479 1.276zm-3.878 3.525l-.627-1.23.897-.456c-.093.563-.178 1.122-.27 1.686zm-2.463.739c-.453-.145-.887-.252-1.322-.36.824-1.639.909.054.732-1.921.426.487.844.931 1.277 1.414-.244.265-.462.564-.687.867zm-3.781.377c.583.032 1.189.098 1.772.13-1.613.164-.54.275-1.772-.13zm-1.229 3.16l-.607-1.192c.434.107.868.215 1.321.359l-.714.833zm-4.497 2.292c.253-.974.514-1.952.775-2.929.586.405 1.146.777 1.732 1.182-.84.569-1.668 1.178-2.507 1.747zm1.462 2.868l-.627-1.229.447-.227c.056.487.112.975.18 1.456zm-2.877-.082l1.8-.918c-.797 1.58-.095 1.175-1.8.918zm-1.897-2.6c.479.037.965.071 1.443.109-1.125-.037-.074.601-1.443-.109zm-3.845 2.475l-.627-1.229 1.804-.919c-.24 1.67.26.712-1.177 2.148zm-1.921 4.029c.261-.978.522-1.955.776-2.929.659-.195 1.338-.353 1.997-.549-.92 1.173-1.852 2.305-2.773 3.478zm1.267 1.372c-1.379-.517-.337-.016-1.058-.962l.45-.23.608 1.192zm-3.452-2.323c-.037-.451-.098-.936-.154-1.424l.45-.229a33.782 33.782 0 01-.296 1.653zm.14 2.509c-1.692.909-.823.279-2.034 1.553-.229-.072-.453-.145-.663-.179l-.626-1.229c1.38-1.079.692-.353 2.463-.739-.419-.444-.852-.927-1.27-1.371l1.295.326.835 1.639zm-4.288 2.701c-2.213-.186-2.473-.852-4.111-2.504 1.543-.457 1.941-.66 2.938-2.013l.454-.231c1.012 2.675.33 3.351.719 4.748zm-2.946 2.017c-.06-.485-.116-.973-.176-1.458l.454-.231c.019 1.491.261.476-.278 1.689zm-3.419-3.372l.896-.457c.434.107.869.214 1.322.359l-.506 1.243c-.8-1-.194-.464-1.712-1.145zm-.12 3.111c.241-.639.486-1.28.727-1.919.438.481.852.927 1.289 1.408-1.492.15-.888.077-2.016.511zm.51 4.339l-.209-.41c.321-.492.638-.982.933-1.508l.45-.229c1.157.818-.04 1.099-1.174 2.147zm-2.973-3.6l-.897.457c-.567-.368-1.152-.774-1.719-1.142 1.282-.794 1.579-.57 1.836-1.968.583.032 1.17.061 1.771.13-1.339 1.527-.984.689-.991 2.523zm.392 1.864l.443-.225c.361.332.7.628 1.061.961-1.264-.248-.316.207-1.504-.736zm-1.192 2.11l1.346-.686c-.681 1.285.129.638-1.346.686zm-2.138-1.961l1.346-.686.627 1.229a566.83 566.83 0 01-1.402 1.7c-.333-2.318.381-.898-.571-2.243zm-3.002-2.553c.377-.005.728-.042 1.105-.047l1.776.128c.02 1.491.261.476-.297 1.652-.912-1.881-.634-.85-2.584-1.733zm.957 4.111c-1.483-.464-1.101-.237-1.476-1.782 1.518.634.506.587 1.476 1.782zm8.985-10.209l.443-.225.626 1.229-1.347.686.278-1.69zm4.468-1.244c.774.497.496-.112.418.819l-.418-.819zm-6.064 14.82c.437.481.852.927 1.289 1.408-1.529-.628-.309.064-1.289-1.408zm-3.633 2.884l-.626-1.229c.453.144.887.251 1.314.362-.218.299-.463.564-.688.867zm-8.293-2.907c-.539.415-1.065.871-1.592 1.327.145-1.95.282-3.897.426-5.848l2.251-1.146c-.362 1.873-.735 3.752-1.085 5.667zm1.961.502c-.415-.445-.852-.926-1.266-1.372.281.185.567.368.867.59.017-.712.052-1.387.061-2.096l1.929 1.551c-.969 1.151-.584.674-1.591 1.327zm-5.859-2.598c-.007-.372.009-.708.028-1.047l1.322.359-1.35.688zm.538 3.292c-.526.08-1.037.2-1.555.276.253-.974.514-1.951.775-2.929 1.266.434.431.578.78 2.653zm-.113 3.107l-.816-1.602.897-.456-.081 2.058zm-2.025-5.068l.904-.461-1.192 2.11c.092-.564.184-1.127.288-1.649zm-1.704 4.434c-.304-.22-.586-.405-.871-.588 1.08-.785.435.247 1.149-1.101l.896-.457c.358.334.719.666 1.077 1l-2.251 1.146zm2.163.916c-.056-.487-.116-.973-.154-1.423l.451-.229c.019 1.491.261.476-.297 1.652zm-3.906-2.092c-.509-2.04.768-1.189 1.23-3.16l.453-.232c-.463 1.738.766.408-.743 1.881l.418.819-1.358.692zm3.307-5.768l.454-.231c-.168.414-.318.866-.486 1.28.016-.336.016-.712.032-1.049zm-8.707 8.52l-.209-.41c.396-.343.775-.723 1.141-1.098l1.567-.282c-.75 1.508-.352.414-2.499 1.79zm.036-1.051a89.274 89.274 0 00-.853-.551c1.077.108.473.275.853.551zm-2.441.774l-.626-1.229.45-.23c.06.486.116.973.176 1.459zm-.662-.178c-.754.009-1.482.051-2.218.097.073-.225.168-.414.241-.639l1.351-.688.626 1.23zm.51 4.338l-.418-.819c.774.497.496-.112.418.819zm-3.748-.671c.394-.717.78-1.43 1.193-2.109l.904-.461c-.715.833-1.402 1.7-2.097 2.57zm1.948 1.589c-.301-.223-.587-.406-.868-.591 1.073.111.469.278.868.591zm-4.408-.852c.202-1.839.651-2.208 1.471-3.799l.896-.457c-.155 2.05-.586 2.316-1.671 3.386.3.222.586.405.86.594a21.9 21.9 0 01-1.556.276zm-.965 2.556l.278-1.689c1.605-.161.539-.275 1.764.133-1.692.909-.834.284-2.042 1.556zm.817 1.602c-.06-.485-.098-.936-.158-1.421l.454-.231c.02 1.491.262.476-.296 1.652zm1.947 1.589c-.777-.074-.248-.625-1.566.282l.277-1.69c.229.071.435.107.663.178 1.259-.407.048-.494 1.555-.276-.317.49-.638.982-.929 1.506zm-3.905-2.093l-.835-1.639c-1.477.237.035 1.108-1.354.69-.971 1.902-.673.39.147 2.506-.397.343-.771.721-1.168 1.064-1.226-2.003.278-1.221-1.921-1.555-.752-.086-1.019-.372-1.145 1.1l-.446.227c-.755-2.759.18-2.532.393-4.799l1.347-.686c-.027 1.749-.07.176 1.234 2.421.919-1.36 1.308-.807 1.229-3.16 1.677.037 1.461.1 2.668-.327.285.183.567.368.852.551-.556 1.363-.597 1.008-.314 2.741a9.822 9.822 0 00-.687.866zm-7 4.083c-.453-.144-.887-.252-1.314-.363l1.8-.917c-.168.414-.337.829-.486 1.28zm-.567 3.339c-.434-.107-.887-.252-1.321-.359 1.387-.754.844-.055 1.39-1.741 1.148 1.057.574.693-.069 2.1zm-4.677.835c.486-.905.949-1.845 1.435-2.749l.896-.457c-.779 1.054-1.551 2.151-2.331 3.206zm-2.105-3.01l1.358-.692c-.47.568-.92 1.173-1.39 1.741.016-.337.016-.713.032-1.049zm-2.858-.046c1.643-.555 1.231-.251 2.042-1.556l.904-.461c-.337.829-.655 1.695-.984 2.519l-1.962-.502zm-5.664 3.356c.413-1.055.815-2.105 1.229-3.161.132.637.249 1.235.381 1.871 1.516-1.476 3.05-2.915 4.573-4.395l.209.41-.904.461c1.689.922-4.84 4.202-5.488 4.814zm2.426.312l-.418-.82c.793.535.5-.114.418.82zm-1.225 3.158c.201-1.463.158-.268-.158-1.421l.454-.232c.119 1.301.674.173-.296 1.653zm-2.227-5.482c.18.941.764.221-.277 1.69l.277-1.69zm-1.016 3.568c.016-.337.036-.675.051-1.011l.897-.457-.948 1.468zm10.271-8.799l1.346-.686c-.241.639-.486 1.28-.72 1.915-.286-.183-.586-.405-.871-.588.076-.227.168-.414.245-.641zm3.93 1.047c1.626-.359 2.087-.547 3.331-.148-1.576.99-3.174 1.946-4.75 2.936l-.209-.41c1.589-1.232.73-.747 1.628-2.378zm-.816-1.602l1.354-.689.418.819c-1.802.777-.376.614-2.017.511.077-.226.168-.414.245-.641zm4.746-2.934c-1.289.938-.099.707-1.563.28.526-.08 1.037-.2 1.563-.28zm8.141-5.18c1.507-.299-.707 1.674-1.174 2.146.387-.713.78-1.43 1.174-2.146zm-16.038 21.967l-.627-1.229.45-.23c.06.486.117.973.177 1.459zm-13.176-2.484a40.195 40.195 0 00-1.965-.5c1.135-.954 1.057-.069 1.178-2.149.643.518 1.282 1.036 1.928 1.551-1.458.65-.829.001-1.141 1.098zm-5.112 1.103l-.208-.409c.45-.605.912-1.169 1.382-1.737.286.183.567.368.872.588a51.469 51.469 0 00-2.046 1.558zm-4.504 2.296l-.627-1.23 1.322.359c-.244.266-.47.568-.695.871zm-5.855 2.983c.318-.866.647-1.691.965-2.557.112.882.218 1.016-.965 2.557zm-10.62 5.88l-.816-1.602.904-.461c-.035.676-.052 1.388-.088 2.063zm-1.173 2.146l-1.556.277c.009-.333.028-.671.025-1.045 1.849.043 2.627-.4 3.817-1.429.189 2.109-.798 1.017-2.286 2.197zm-3.067-.455l-.743 1.88c-.074-2.261.477-1.556 1.02-3.57.18.941.753.227-.277 1.69zm-2.672.329c.418.444.852.927 1.27 1.371-1.52-.492-.702.076-1.27-1.371zm.546 3.288l-.417-.819c.785.538.492-.11.417.819zm-3.693-1.684c.016-.337.009-.709.025-1.046.031.548.539.101-.025 1.046zm-3.845 2.475l-.627-1.229 1.801-.918c.587 1.015.191.513 1.281 1.412-.823.232-1.651.466-2.455.735zm1.712 1.145c.02-.338.036-.675.037-1.05l.896-.457a26.533 26.533 0 01-.933 1.507zm-2.729 2.423l-.907.463c.019-.339.02-.714.036-1.051.285.183.586.405.871.588zm-1.984-.537c-1.29-.141-.209.059-2.045 1.558.092-1.548.01-1.929.811-3.98l1.234 2.422zm-.27 1.686l-.418-.82c.793.535.493-.11.418.82zm-8.201.612c-.526.081-1.037.2-1.555.277.015-.337.009-.709.025-1.045l.903-.461.627 1.229zm-4.654 6.454l-.417-.82c.773.498.503-.115.417.82zm-19.453 6.346c.001-.376.017-.713.029-1.048l.45-.229c-.168.414-.329.825-.479 1.277zm-12.098 4.099c-.067 1.395-.411-.494-.607-1.192.494.593.988 1.186 1.478 1.781-.281-.185-.586-.406-.871-.589zm-1.869 3.017c-.442-.15-.876-.257-1.314-.363.172-.416.321-.867.479-1.276.252.2.643.141.208.41.362.332.719.666 1.081.998l-.454.231zm-.688.867c1.609-.163.52-.313 1.749.094l-1.749-.094zm-.948 1.468c.009-.333.028-.671.044-1.008.031.548.543.099-.044 1.008zm-3.407-3.332l2.173.91c-1.477-.232-.857.156-2.173-.91zm2.295 3.383a89.274 89.274 0 00-.853-.551c1.077.108.473.275.853.551zm-.721 1.915c.016-.336.025-.669.025-1.045l.451-.229c-.15.451-.318.866-.476 1.274zm-2.836-1.088a19.1 19.1 0 01.036-1.051c.282.185.567.368.868.59l-.904.461zm-11.188 15.882l-.417-.819c.793.535.496-.112.417.819zm8.074-15.328l-.627-1.229c1.327.544.705-.171.627 1.229zm-13.305 7.295c.02-.338.016-.712.036-1.051.434.108.887.252 1.322.36l-1.358.691zm-1.383 1.737l.278-1.69.446-.227c-.237.637-.479 1.276-.724 1.917zm-.739 1.878a45.95 45.95 0 01-.157-1.421c.209.034.427.111.636.145-.142.448-.31.862-.479 1.276zm-6.245 7.781c-1.169-.014-2.191.131-1.08-.998-1.966-.641-1.003.699-2.617-.685 2.727-.92 1.852.793 4.472-1.246.282.185.568.368.849.553-1.17 1.722-1.544 1.162-1.624 2.376zm5.911 1.587c.117.597.249 1.233.366 1.831-1.51-.592-.309.064-1.27-1.371-1.123 1.089-1.573.849-2.938 2.014.326-1.199.664-2.403 1.017-3.568.937.367 1.881.73 2.825 1.094zm-11.5-5.872l-1.559.279c.168-.415.31-.862.479-1.277.529-.082 1.036-.2 1.566-.282-.168.414-.318.866-.486 1.28zm-.449 5.813c1.892-.213 1.668-.146 3.089.491-1.029-.18-2.05-.317-3.089-.491zm3.009 2.55c-2.166.024-.956.064-2.383-1.32 2.479-.137.131.918 2.193.947l.19.373zm-6.197-5.477l-.626-1.229 1.346-.687.626 1.23-1.346.686zm-.322 2.698c-.136-.635-.26-1.229-.392-1.865l.454-.231c-.021.714-.056 1.389-.062 2.096zm-1.208-3.467c.884.816.338.25.183 1.455-.06-.486-.127-.967-.183-1.455zm3.784-.38l1.709 1.147-.684.865-1.025-2.012zm4.241-1.691l-1.138 1.096-.607-1.192.896-.457c.282.185.567.368.849.553zm-9.408 3.808c-.244.265-.462.564-.688.866-1.322-1.813-.588-2.093-2.555-2.78l2.199-.135 1.044 2.049zm-11.339-4.452c.478.038.964.072 1.443.11-1.125-.037-.074.6-1.443-.11zM58.618 402.028l-.607-1.192.904-.461-.297 1.653zm-2.199.135l.4.782-.45.23-.122-2.473c.877.82.334.252.172 1.461zm-3.511 5.356l.068-2.1.45-.229c.144 1.1.294.695-.519 2.329zm-2.218.097c.225-.302.47-.568.695-.87l.896-.457-.27 1.687c-.453-.145-.887-.252-1.321-.36zm-.57 3.341l-.21-.41c.02-.338.04-.677.056-1.013l1.8-.918c-.37 1.268-.442 1.211-1.647 2.341zm.176 1.459c-1.495 1.793-2.236 1.655-1.262 4.209-.274-.189-.579-.409-.86-.594-.378.38-.775.723-1.15 1.101 1.205 1.029 1.195.8 2.384 1.32l-1.592 1.327c-1.43-1.195-.878-.444-1.234-2.421-.38.006-.735.046-1.116.053l.626 1.229c-1.188-.098-2.35-.163-3.54-.262l.627 1.23c.377-.005.736-.046 1.113-.051-.546.419-1.073.875-1.592 1.327-1.205-.747-.369-1.313-.755-3.698-1.274.415-.555.612-2.218.098 1.226-.483.972-.354 2.672-.329l.278-1.69c.651.185 1.314.363 1.973.543-.364-.19 2.42-3.626 2.611-4.896l2.2-.136.835 1.64zm67.318 149.923c0 .375-.016.712-.036 1.051l-.816-1.602 1.35-.688c.282.185.567.368.849.553l-1.347.686zM42.459 421.523c1.605-.16.52-.312 1.745.096-.583-.031-1.162-.064-1.745-.096zm71.009 139.362c.184-.75.346-1.537.53-2.287.944.363 1.888.726 2.825 1.094-1.892.166-1.808.405-3.355 1.193zm-2.705 1.378a18.365 18.365 0 01-.871-.588c.096-.19.168-.414.264-.604l1.354-.69c.427.111.861.219 1.295.326-.675.532-1.347 1.062-2.042 1.556zm-3.182-9.593c-.317.49-.638.982-.937 1.509-.003-.373.017-.712.033-1.049l.904-.46zM39.092 422.723l-.626-1.23c.228.072.434.107.662.179-.02.338-.035.675-.036 1.051.302-.53.62-1.02.94-1.512-.188.753-.353 1.541-.541 2.294l-.399-.782zm2.463-.739c.491.219 1.001.475 1.511.731-.225.303-.47.568-.695.871l-.816-1.602zm1.392-8.405l.45-.229c-.241.639-.486 1.28-.72 1.915.085-.559.177-1.122.27-1.686zm59.792 138.508c-1.783-1.578-.25.033-.59-2.28l1.321.359c-.245.641-.486 1.28-.731 1.921zm-.044 1.008c.727.333 1.447.623 2.182.953-1.432-.162-.986-.014-2.182-.953zm3.138 5.064l1.358-.691c-1.086 1.022.099.747-1.358.691zm-7.172-9.625c-.434-.107-.887-.252-1.314-.363.237-.261.462-.564.688-.866l.453-.232c.057.488.117.973.173 1.461zm1.828 4.699c-.901-.526-2.483-.283-4.018 1.016l.277-1.69c1.406-.201 2.82-.405 4.227-.605l-.486 1.279zm-4.677-11.412c.016-.337.017-.712.032-1.049l.454-.231c-.168.414-.318.866-.486 1.28zm-56.589-79.89c-.378.381-.771.722-1.142 1.098l-1.892-2.602 2.704-1.378c.117.973.214 1.909.33 2.882zm740.785-253.944c-.199-4.31 5.931-5.556 7.438-9.89-.221-.075-.412-7.862-.112-9.14-5.038-2.126-8.134-9.417-18.587-11.974-1.07.311-.446-.148-.688.867-4.764-2.078-11.961-8.359-11.319-11.079l-.607-1.192c-8.531-2.269-24.614-12.234-28.135-22.922-.26.601-.498 1.239-.739 1.878.24-2.703-4.161-6.889-6.581-7.345-1.489-.65-.574-.225-2.01.507.684-1.381.061-.312 1.142-1.098-3.722-2.89-10.026-8.264-12.573-6.873.035-.675.041-1.382.076-2.057-2.376-.056-.7-.628-2.459.737.153-4.066-4.711-2.855-4.444-5.384-2.338-.826-1.478-.749-3.122.558-.447-1.742.174-2.481-2.094-3.015-.197.147-.099-.278-2.463.739.387-.713.78-1.43 1.174-2.147-2.636-1.238-1.81.171-5.658-2.185 1.585-.714.898.153 1.599-1.331-3.987 1.563-9.604-7.447-14.622-5.313-.392-3.648.978-20.628-8.525-21.182 0 0-.008.004-.245.64-6.039-4.008-24.112-14.695-30.049-12.233.085-.56.177-1.123.27-1.686-2.526 1.24-2.807.726-3.938-1.044-1.03.995-1.141.253-2.488 1.784.141-3.31-20.79-5.408-24.287-.905l-.835-1.639c-2.222 1.32-2.226 1.745-3.809 1.425-1.181 1.681-.785.4.382 1.87-1.395-.134-2.786-.27-4.199-.441.023 1.396.015.837.389 1.866-8.209-2.152-23.88-7.4-34.46-.835 0 0-1.583-1.306-.853-.552-3.006 3.644-21.595 5.608-26.661 10.019-.301-.222-.587-.405-.868-.59l1.8-.918c-3.241.15-15.072 7.164-15.072 7.164-.752-.555-.649.096-.418-.82-1.531-.392-7.05 2.514-6.751 3.44-1.017-.138-2.057-.312-3.067-.455-.183.469-.354.932-.556 1.363.08.194.063.39-.194.52.069-.175.132-.347.194-.52-.161-.434-1.08-.904-1.244-.445-3.351 1.754-9.288 3.418-12.61 6.424-5.944 5.281-48.162 24.493-51.936 23.882-4.691 1.874-8.825 6.139-11.014 5.096-1.035 1.888-.594.537-.069 2.1-2.714-.213-11.318 3.561-10.982 4.047l.209.41a356.468 356.468 0 01-6.273 2.163l.209.41c.606.067 1.181.102 1.768.131-2.066.396-4.151.755-6.236 1.113-1.318 1.047-1.869 3.017-1.869 3.017-4.549 1.426-32.725 14.516-32.813 14.655-1.452 2.898-12.338 8.586-17.593 9.996-.306.109-17.155 7.943-18.083 11.279-2.612-1.485-11.286 6.219-13.956 7.111-10.718 3.536-29.67 20.842-45.81 25.875-6.162 1.919-18.045 13.229-21.896 12.705-10.236 6.247-20.494 12.459-30.737 18.711.53-.082 1.03-.196 1.556-.277-16.478 6.144-36 26.039-52.216 32.236-5.409 5.853-27.632 22.855-30.673 23.278-.019.338-.039.677-.055 1.013.453.145.887.252 1.314.363-.576-.035-1.162-.065-1.768-.131-1.832 1.168-1.661 1.972-2.798 4.522-.362-.941.217-.439-.871-.588-5.259-2.717-22.119 25.206-28.605 27.338 0 0-6.297 5.508-10.065 9.211-2.353 2.278-15.272 12.943-16.238 14.89-3.879 7.936-14.587 12.641-18.224 21.016a398.88 398.88 0 01-6.096 3.623c-3.058 6.485-2.157 9.31-10.69 14.643l2.194.948a200.244 200.244 0 00-4.653-.211c-1.094 1.778-.501 2.133-2.315 3.245-.44.975-.398.156-.868-.591-2.927 3.744-4.83 4.855-5.83 8.602-1.361-.573-.28-.749-2.183-.953-.417 2.418-1.288 2.722-3.636 2.886-1.696 4.102-3.385 8.2-5.08 12.301 2.255 1.291 2.328.175 4.6 1.222l-1.807.921c-.02.339-.029.672-.048 1.01.347.011.691.023 1.02-.003l.539-.275c.004.092.02.177.024.269 1.177.01 2.339-.018 3.515-.007l-.486 1.279-.626-1.229c-.378.004-.736.046-1.106.047-.263 2.011-.148.592 1.025 2.012-5.24 2.248-18.204 18.285-18.83 19.824.559.372 1.145.777 1.712 1.145-1.238 6.684-5.598 8.343-6.733 15.725l1.8-.917c-.702 1.343-.068.316-1.16 1.06 3.702 4.12 7.288 16.887 10.197 17.797-.673 1.282.136.635-1.346.686 1.64 9.629 16.467 37.22 19.571 39.533 8.193 6.055 17.343 11.857 23.093 15.262 3.45-3.307 11.743-1.855 11.472-5.329 3.154-.2 5.997 3.889 7.771 5.237-.583-.031-1.17-.061-1.772-.129l.418.819c-.161.411-.311.862-.479 1.277 1.834.05.839-.663 2.913-.969-.011-.37.009-.708.025-1.045.117.598.249 1.234.373 1.828.274 1.502-.96 2.647-2.288 4.216 1.608-.632 6.736-2.541 8.697-3.869l.399.783c-.459 1.454-.246.078.176 1.458-2.332.72-1.972.911-2.671.329l-1.347.686.209.41c-1.428 1.244-1.391 1.648-.812 3.98 2.165-2.933 5.761-2.653 8.523-3.31-2.139 3.389-6.628 2.063-7.739 5.961l-.897.457c1.835.05.328.349 1.801-.918a19.1 19.1 0 01-.036 1.051c2.055.126-.019-.882 2.462-.739-.217.815-.784.4.572 2.243l-.443.226c-1.021-.137-2.057-.313-3.07-.454l1.442 2.832c1.077-1.206.559-.238.933-1.508 1.145.308 6.466 2.336 8.257 3.958a56.18 56.18 0 01-2.041 1.556l.208.409c2.063-.769 2.047-.901 3.184-2.653l.835 1.638c-.414 1.056-.816 2.106-1.23 3.161l1.592-1.328c.469 2.952 3.176 1.526 4.323 2.913 1.037.316.166.15-.688.866l.836 1.639c.274.189.559.372.841.557 1.41-1.141.943-.246.959-1.474 1.279.709 1.269.292.154 1.423.136.635.249 1.234.385 1.869 3.041-3.052 1.581-3.011 3.303-5.766.434.108.861.219 1.295.326-.969 1.151-.585.673-1.592 1.327-.016.712-.052 1.387-.061 2.096 1.704-2.229 1.096-.699 3.568-.786.464-1.738.627-1.492.303-2.735 1.715.111.86.078 2.463-.739.577 4.821 9.664 9.247 13.605 8.881-.165.789-.353 1.541-.519 2.33 2.298.471 3.049 1.496 4.276 3.921.462-.564.932-1.132 1.401-1.7.891 2.925 5.807 2.579 9.344 3.874.321-.492.638-.982.951-1.471 1.006 1.975 3.043 1.172 5.831 3.646l1.351-.688c-.378.004-.736.046-1.106.047.085-.56.178-1.123.289-1.649 5.833 9.369 22.511 12.556 25.942 21.975 1.487-.429 2.989-.819 4.476-1.248.268.895.514 1.755.783 2.651.807-2.335-.073-1.652 1.672-3.386l-.835-1.639c-1.633-.107-.64.373-.27 1.686l-.904.46c-1.063-1.57-.226-.635-1.94-1.592.091-.187.168-.414.26-.602l2.246-1.144c.073-.225.15-.452.242-.639l1.442 2.831c.362.332.719.666 1.061.961l-.574-2.241.454-.231c.844.93 1.695 1.857 2.547 2.784-.168.414-.318.866-.479 1.276-.719 1.117-.019-.037-2.463.739.269.895.515 1.755.784 2.651l1.8-.918-1.112.051c.572-1.324 2.777-1.649 5.01-3.538.962 2.513 1.738 1.977.783 2.651.564.37 1.153.773 1.72 1.141l.443-.225c-.193-.747-.382-1.495-.571-2.243l1.113-.051c.015-.337.016-.712.032-1.049.514 2.6 2.589 5.156 1.286 6.993 1.68.318 1.681-.48 3.785-.379.165-.788.342-1.536.511-2.326 1.363.479.41-.115.626 1.23l.209.41c.771-.722 1.516-1.477 2.287-2.198-.284.896-3.691 3.617-3.332 6.812 2.605-2.453 2.61-1.893 5.646-3.392l.208.409c-.695.871-1.382 1.737-2.096 2.57-.001.376-.017.713-.037 1.051l.209.41 1.8-.918c.229.072.435.108.663.179-.701-1.238.358-.511-1.08-.998l.959-1.474c.55.142 1.136.078 3.304-.182-.565-1.026.073-1.163-1.958-.504l-1.043-2.049c1.862-1.935-.039-.075 3.157-1.609-1.192-1.457-.716-1.324-1.417-3.876 1.008-.514 1.077.108.695-.871 1.04.175 2.05.317 3.089.491-.193-.747-.382-1.495-.574-2.241l-3.608 1.838c.169-.79.353-1.541.522-2.331l-.904.461c-.951.156-2.171.778-2.287 2.198l-.446.227c-.159-2.078-.441-3.201 1.046-4.615.839.745-.246.594 1.511.731.607-2.045 3.067-5.41 4.203-6.224.522-1.486-.162-.199 1.611-1.29.484 2.193-.154 1.346 2.555 2.781-.003-.374.016-.713.032-1.049 1.133.08.436-.128-.18-1.457.434.483.852.927 1.285 1.41 1.136-2.268-.596-.822.757-2.966-2.294-.521-1.768 1.229-2.825-1.094-1.941.191-.542 1.308-2.218.097-.226.303-.47.568-.695.87.298-1.372.093-.939 1.181-2.15.102-.803 5.109-3.307 7.201-3.669.78 1.667-.174 1.496 1.948 1.588-1.379 2.58-3.595 2.113-3.721 4.946-.377.005-.735.046-1.112.051 2.673 1.172 3.397-1.075 4.745-2.935.766 1.347 1.043 1.393 2.603 1.771-.082-.943.415-.399-.417-.819l-.209-.41 2.251-1.147c-.132 1.663.462.375-.93 1.506 2.839 1.745 1.809.064 4.301 2.877-2.036.005-5.316 2.145-7.33 1.2-.635 1.356-1.266 2.71-1.92 4.029-2.285-.76-.422-1.333-2.617-.684.234-1.481.298-1.513 1.415-2.786-1.606.02-.936.571-2.199.135-1.407 3.251-2.256 2.275-2.816 4.485-.586-.405-1.154-.773-1.74-1.179-.37.377-.744.755-1.141 1.098l.835 1.639c.358-.041.736-.046 1.113-.05l-.418-.82c1.175.246 1.671.65 2.339 2.374l1.113-.05-.418-.82c1.967-.673.022-.058 1.592-1.327.019-.338.036-.675.036-1.051l1.044 2.049c1.006-1.216 1.214-.478 1.624-2.376 1.522.633.31-.064 1.282 1.412.016-.712.052-1.388.068-2.1 2.761-2.251 1.672-2.916 5.164-2.114-1.573.379-1.607.349-2.496 1.787.229.071.434.108.663.179 1.739-1.59 3.502-1.597 3.183-2.654 1.529.628.306-.063 1.285 1.409 1.692-3.208 2.631-2.091 4.566-4.391.136.635.249 1.234.385 1.869.983-2.191.046-2.182-.052-4.572-.771.721-1.542 1.443-2.306 2.16.056.488.116.973.173 1.461-1.464-1.742-.65-1.358-2.163-.916-.548-1.645-.708-1.563-2.105-3.01.285.183.567.368.852.551.936-1.556.78.354 1.278 1.414.9-1.35 2.253-1.758 2.564-3.887-.82-.24-.397.296-1.266-1.373 1.401.553.336.016 1.076 1a104.27 104.27 0 012.942-2.015c-1.493-.319-.058-.252-1.559.278.42-2.044.492-1.001 2.081-2.609-.016.712-.052 1.387-.072 2.101 1.62-1.904.986-.502.515-2.326.526-.081 1.037-.2 1.567-.283.43 1.517.136 1.151 1.467 1.787-.753-1.634.731-1.077-.816-1.602l-1.025-2.012c-.008.333-.028.671-.044 1.008l-1.116.053c-1.49-.79-.307-.548-1.745-.097.827-1.594 3.022-1.305 2.556-3.883.812.103 1.616.209 2.427.312-.434-.483-.852-.927-1.285-1.41l.45-.229c1.578 1.213 1.997 1.704 3.715 1.72.341 2.829-.56 1.787-1.47 3.799 1.113-.051 2.225-.102 3.312-.186-1.297-2.811.25-.878 1.47-3.799.491.595.985 1.188 1.494 1.82 1.185-1.777.298-.575 2.247-1.145-1.39-.512-2.769-.983-4.159-1.495l-.189-.372a34.077 34.077 0 011.591-1.327l.607 1.192c.512-.073 1.129-.387 1.817-.785-.004-.045-.016-.086-.016-.133l.666-.339a20.624 20.624 0 001.996-1.627c.025-.153.046-.305.093-.423a1.17 1.17 0 01.396-.014c1.579-1.508 3.026-3.137 3.72-4.148 1.568.843.464.046 1.025 2.012 1.753-1.738 1.849-.895 2.668-.327l1.801-.917c-1.184-2.166-.532-1.559-1.861-3.651 3.085.775 2.139.318 5.099-.017-.078-1.697-.176-.99.519-2.329.285.183.578.409.863.592l1.113-.051c-2.474 2.105-2.569 3.234-4.412 5.815.177-1.123.363-2.25.567-3.339-1.421.817-.463.987-1.801.917-.354 1.495-.185.658.784 2.651-1.805.357-.097.518-2.009.507.845 1.916.375 1.968 2.339 2.375-.138-1.291.71-2.192 1.92-4.029l.816 1.602c1.501-1.938-.216-.875 2.255-1.148.166-1.164.186-1.832.775-2.929 1.1.753-.004.893 1.314.362 1.985.256-.091-.141 2.495-1.787-2.26-.538-2.187-.293-2.913.968-.72-.806-.299-.551-.366-1.831-1.008.982-.704-.205-.948 1.468l-.454.231c.261-.977.522-1.955.776-2.929 1.82.528 1.092.241 1.929 1.551.951-1.47 1.888-2.979 2.82-4.487l.627 1.23c.434.107.868.214 1.295.325.26-.602.505-1.243.75-1.884-1.418.206-.267.652-1.775-.128l2.704-1.378c-.091 1.173-.041 2.274-.567 3.339 1.45.904.031.594 1.765.134 1.52.961.463-.002 1.025 2.011 2.295-2.436 3.413-2.818 3.515-5.357l-1.8.917c.802-1.488-.025-.269 1.592-1.327-.587-.03-1.17-.061-1.746-.096l-.208-.41c.952.031 1.916.056 2.857.046.972 2.32.602 2.274-.105 3.15l.817 1.602.454-.231c1.041-2.408 2.081-4.815 3.142-7.185.643.141 1.302.321 1.965.5-2.262.683-2.447.965-2.323 3.248l.209.41c2.024-.515.674-.719 2.444-.776-1.186-1.554.451-.934-1.713-1.145l-.209-.41c3.054-.571 1.868-.013 4.706-1.881.113.599.257 1.23.37 1.829 2.066-2.648 3.695-3.103 6.352-4.223-.307-3.269-.133-3.122 1.54-5.898.775.777 1.563 1.596 2.339 2.374-1.95.43-1.926 1.638-3.03 4.078l.209.409c.743-.05 1.15-.445 1.367-.931a2.38 2.38 0 01-.218-.17l.294-.15a2.782 2.782 0 00-.005-1.499c.735-.046 1.471-.093 2.218-.098.32-1.899-.213-2.238-1.201-3.47.812-.273 1.631-.503 2.443-.776.512 1.381-.477.947 1.077 1-.109.9-.221 1.802-.329 2.701l3.209-2.62-1.044-2.049a55.122 55.122 0 002.042-1.557c-.474 1.462.348.527-1.145 1.1.132.636.249 1.234.381 1.87 1.328.169 1.498-.434 3.766-.417.035-.675.052-1.387.08-2.058.757 1.21.438-.317 1.076 1 2.502-1.463 2.147-1.986 4.123-4.166 1.079 1.75 2.954.841 5.706 1.175.093-.563.185-1.126.27-1.686-.728.043-1.463.089-2.202.137l-.627-1.229c2.772.042 2.54.489 4.472-1.246.193.746.39 1.491.583 2.237a101.87 101.87 0 002.938-2.014l-.278 1.69c.695-.87 1.39-1.74 2.078-2.607-.15.452-.318.866-.479 1.277l.209.409c1.222-1.326.823-.701 1.174-2.146l.896-.457-1.105.047a36.256 36.256 0 01-1.511-.732c.51-.119 1.036-.199 1.566-.282l.897-.456c.173 1.084.346 2.169.546 3.288 1.23-1.659.963-.538.302-2.735 1.786-.441 3.264-.162 3.957 1.08 2.461-1.957 2.446-3.263 4.264-1.655a210.184 210.184 0 014.079-3.111c-.587-1.015-.191-.513-1.282-1.412 3.121.24 3.257-.064 6.691-1.344-.571-.742-1.137-1.486-1.688-2.19 2.09.671 1.581.555 1.896 2.599 1.903-.734 1.809-.78 3.103-.595-4.386 1.296-2.966 2.731-9.653 4.449-.428 1.063-.527 1.723-.775 2.929-1.755-1.311-.581.625-2.371-1.325-1.374 1.028-2.74 2.052-4.106 3.077-.733-.941.314-.442-1.062-.961-.834 1.692-1.953 2.732-3.391 2.245-.261.601-.506 1.242-.751 1.883 1.071.722-.298.997-1.624 2.376.185-1.126.37-2.253.574-3.342-1.506 1.237-1.97 2.459-2.964 1.98l-.454.231c.269.895.541 1.788.81 2.684 4.357-2.502 6.457-2.914 9.697-5.457a10.9 10.9 0 00-.695.87c1.96.832 2.33-.483 4.449-1.281.229-1.712.408-.302-.816-1.602.168-.415.318-.866.486-1.28.805 1.56.437.856 1.688 2.19 1.922-1.543 2.109-1.075 2.298-2.156 2.309-.802.529-.645-.594-2.279 2.041-.289 6.989 2.774 6.69-1.344 1.434.443.211-.155 1.057.963 2.068-.162.457-.796.743-1.88l.418.819a10.9 10.9 0 01.695-.87s2.287-1.259 5.112-1.103c.204-1.089.381-2.212.566-3.339l-.903.461c-.936-1.072-1.281-.333-1.142 1.098l-1.929-1.551c-.402 1.049-.816 2.104-1.218 3.154l-1.53-.769c1.586-.198 2.649-2.194 1.262-4.209 1.14-.722 2.27-1.485 3.391-2.244.7 1.004 1.403 2.007 2.102 3.011l.454-.231c-.373-1.734 1.136-1.282-1-3.056 1.148-.773.187.092 1.149-1.102.268.895.533 1.793.802 2.688.507-.117 1.026-.194 1.537-.313-.419-.444-.852-.928-1.27-1.371.831-.236 1.639-.507 2.463-.739-.993-.855-1.998-1.704-3.002-2.553.019-.338.02-.714.036-1.051 1.489-.195 1.852-.521 2.635-.216.007-.051.011-.099.037-.113.282.185.567.368.86.594-.387-.272-.661-.414-.897-.481-.727 1.919-.581 1.047.817 2.54-.02.338-.017.712-.036 1.051.98-.688 1.972-1.334 2.949-2.019 1.327-.77-.008.004.932-1.507.434.482.852.926 1.286 1.409.386-.713.78-1.43 1.174-2.147 1.814.343 2.433.168 3.776-.376-.144 1.951.411.871-1.646 2.341l1.984.538c1.049-1.427 1.733-1.775 1.415-2.786 1.074.204-.036-.31-1.094.088l-.626-1.229c3.02-2.055.83-.799 4.713-1.886.637-1.591-.554-1.125.757-2.966.67 1.16.053 1.475 1.976.541.298 2.101.749.651-.515 2.328-.165.788-5.237 4.029-6.662 6.96.358-.041.735-.046 1.112-.05-.244.265-.469.567-.714.833 6.505-4.347 7.893-2.708 13.562-7.895-.093.563-.197 1.085-.289 1.648 2.034-1.552 1.155-1.668 2.041-1.556 1.465-1.732 1.175-1.584.776-2.929l.478-1.276c-.801.267-1.631.503-2.459.737.241 1.097.266.568 1.285 1.409-2.408.993-3.763-.663-6.931 1.984l-.816-1.602c3.113-1.211 1.769-.198 3.392-2.245.043.26 17.627-9.873 19.613-10.509 1.364-.414.363-.889.486-1.281a100.51 100.51 0 002.939-2.013c.662.179 1.321.359 1.976.542.67-3.486.849-1.23 2.166-4.67.651.185 1.314.363 1.972.543-2.187 1.021-1.718-.062-1.642 2.339 1.531-1.812 3.085-3.59 4.617-5.402-.254.973-.515 1.951-.776 2.928 3.224-2.675 2.396-2.534 5.28-5.224l1.322.359c-.879.823-.644-.188-.956 1.473l.904-.461c.606.583 1.847-2.49 3.026-4.076 1.298.23 3.793-.243 3.986.034.735-.046 1.47-.092 2.198-.135.046-2.182-1.247-.959 1.435-2.748-1.455-.667.211-.671-1.523-.773l-.209-.41c1.515-.209 2.566-.087 3.957 1.081l.447-.227.903-.461c-2.374-2.168-3.139-2.06-5.914-1.585.772-1.097 1.226-.812 2.463-.739l.45-.229c.085-.559.177-1.123.27-1.686l-2.251 1.147c.978-1.531 2.725-1.201 4.296-2.705.282.184.586.405.868.59-.638.982-1.25 1.997-1.888 2.979 1.468 1.411 1.966.172 3.053 1.542 1.337.445.056-.028.607 1.192.812-1.727 1.325-2.035-.121-2.472-.116-.973-.229-1.948-.337-2.878l2.254-1.149.19.373c-.539.79-1.082 1.583-1.628 2.378.57.741 1.136 1.485 1.688 2.19l.45-.23-.572-2.242c3.403-.045 4.015-.591 5.401-2.752.719.666 1.419 1.295 2.138 1.961 1.234-1.661 2.483-3.283 3.717-4.944-.401-1.626-.399-.407-.517-1.52-.183-.048-.378-.136-.554-.187-1.005.934-.888-.345-2.417.434-.228-.072-.445-.149-.651-.185l-.209-.409c.367-.375.764-.718 1.138-1.096.605.442 1.318.876 2.139 1.256a5.75 5.75 0 01.496-.534c.022.317.038.543.058.721 1.446.483 3.191.579 5.23-.366-.035.675-.052 1.387-.08 2.059.671-.155 1.35-.312 2.009-.508-.775-.777-1.57-1.593-2.346-2.37 1.61-.445 2.515-.766 3.78-.378l1.351-.688c-1.012-.846.049-.447-1.322-.359l.487-1.28c1.496.739.704.251 1.044 2.049 1.971-.067.154-.736 2.199-.136-.618-2.407.221-2.599-.514-4.336 3.082.541 1.737 2.352 4.026-1.019.57.742 1.136 1.486 1.68 2.194.694-.495 1.373-1.028 2.06-1.519-1.69-.265-.218-.218-2.009.507l-.626-1.229c-.113-.599-.249-1.234-.363-1.833l1.801-.918c.281.185.567.368.848.553-.526.456-1.045.909-1.591 1.328-.016.336-.017.712-.033 1.049 2.188-.646 1.269-1.116 2.46-.737.376-1.459.188-.284-.173-1.461 2.199-.135 2.913.346 5.095-.015.082-1.309.285-.755 1.174-2.146l.417.819c1.166.109-.286 1.038 2.167.914-.764-1.535.176-4.454 2.19-5.715-.651-.184-1.295-.325-1.954-.506.375-.378.752-.759 1.138-1.096l1.567-.282c-.281 2.255.549 1.41-.542 2.294 1.06 1.29.809 1.136 1.948 1.588.605-1.856.262-2.151-.755-3.698l2.254-1.148c.776.778 1.552 1.555 2.346 2.37.511-.119 1.03-.195 1.556-.276-.096-1.687-.177-3.335-.269-4.978.229-.304.474-.569.699-.872.777 1.434.367.564 1.929 1.551-.679.534-1.355 1.066-2.046 1.559.937.367 1.882.73 2.845 1.131-.044-1.244.028-1.516 1.861-3.013.954 1.907-.331 1.483 2.833 1.091-.451-2.164-.049-1.899-.546-3.289 3.193.016 2.357-.45 5.34-.655l-.33-2.882c1.272.712.883.629 1.471 1.784 1.221-.951 2.42-1.937 3.633-2.884-.559-.371-1.145-.777-1.712-1.145 2.813-.307 1.113.888 3.966-.003-.51-.256-1.012-.517-1.504-.736.877-.118 1.765-.242 2.649-.364.02-.338.029-.671.048-1.01-1.102-.001-.107.102-.864-.592-1.692.909-.834.285-2.041 1.557-.437-.481-.852-.927-1.289-1.408.529-.082 1.036-.2 1.559-.279-.854-.222 2.323-.01 3.817-1.428.426.111.861.218 1.314.363-.321.492-.631.978-.952 1.47 1.869-.295 3.018-1.819 4.794-3.944-.015 1.462.632.569-.081 2.058l.209.41c.78-1.429 1.579-2.822 2.367-4.256-1.421-.636-1.253-.675-3.086-.492l-1.025-2.012c2.025.424 1.076.015 1.929 1.551 2.341-1.052 2.282-.975 3.865-2.438.074 2.637-.635 2.717-1.108 5.632 2.213-1.127 1.776-1.515 2.704-1.378 1.308-1.745.953-2.268 1.287-5.254-1.082.223-.605.965-1.087.084-1.579.055-.014.008-1.076-.999-.06-.486-.116-.973-.176-1.459 2.1-.789 2.068.354 4.054-2.066-.258 2.666-1.389 3.664-.254 7.309.093-.939.183-1.876.257-2.853l-.152-.298c.068.013.123-.016.198-.007.017-.196.019-.432.036-.628.453.144.887.252 1.325.357l-1.361.271a5.014 5.014 0 00-.046.305l.683 1.341c1.777-1.984 2.832-3.601 5.679-4.441-.709-1.235.35-.508-1.058-.963.521-3.503 2.154-2.082 2.879-6.581l1.357-.692c-.4 1.237.159.294-.94 1.511.72.29 1.455.62 2.174.91-.735.047-1.471.093-2.218.098-.067 3.225-.336 5.051-1.986 6.126-.308.627-.504.445-.658-.18-.924 1.175-1.853 2.305-2.766 3.474 1.121-1.322 1.268-.271 2.902-.963-.317.49-.627.977-.948 1.469l.835 1.639c1.144-.771.18.096 1.138-1.096 1.092-.275.614-.313.699-.872 1.706-1.057 2.46.248 2.52-2.833l.454-.231-.069 2.1 8.383-5.82c.638-.982 1.25-1.998 1.888-2.98a37.263 37.263 0 01-.296 1.653c2.82-1.343 5.41-3.461 7.051-5.095.085-.559.178-1.122.27-1.686-1.254.123-2.519.251-3.754.411-.075-1.416.234-.166-.627-1.229l.479-1.276c3.884-1.885 4.914-2.551 8.025-3.855-1.563-.658-1.28-.802-2.781-.319.001-.375.016-.712.036-1.05 1.545.245 1.694.169 2.876 1.35.685-.302 1.474-.61 2.409-.993-.415-.445-.852-.927-1.267-1.372l1.182-2.151c.753 2.103.059.392 1.233 2.422l3.473-4.303a28.888 28.888 0 01-.29 1.648c.225.074.454.145.659.181 1.182-1.259.991-.411 1.406-1.702.038.075.152-.124-.209-.409l1.8-.918c-2.245-1.014-2.222-1.354-3.66-2.733l1.347-.686c1.372 1.6.662.178 1.233 2.421a58.22 58.22 0 001.833-1.966c.636 1.928.383 2.527 2.105 3.01-.558-.701-.54-2.118-.096-3.518l.627 1.23c1.985-.636.672.455 1.595-1.329.189.748.378 1.496.578 2.239 1.983-2.324 2.662-3.421 1.95-5.076 2.2.006.552-.469 1.731 1.183 1.626-1.204-.123-.5 1.801-.917.044-2.322-.657-1.777 1.21-3.198-1.567-.656-.442-.526-1.749-.094.245-.641.486-1.28.724-1.918 1.679 1.632.902 2.497 3.181 4.01-2.306 3.474-10.306 8.067-13.143 8.715.361.332.718.666 1.069 1.004-1.831 1.777-3.858 1.403-5.819 1.932 1.526 1.147.238 1.615 2.375 1.324.863-.44.759.036.506-1.243 1.893-.542 3.157-.764 5.774-.925-.954-1.531-.007-.465-1.27-1.37 2.672-.752 1.898.018 5.35-1.741-.419-.443-.845-.93-1.263-1.374 1.773-.106 1.428.07 2.672-.329.291-.524.611-1.016.929-1.506-.282-.185-.586-.405-.868-.59 1.729.433.774.169 1.494 1.82 3-3.078 4.113-5.381 8.383-5.82l.27-1.686c1.203-1.27-.736-.939-1.922-1.555.77-1.377.212-.624 1.592-1.327-1.475-1.266-.448-.945-1.98-.539a69.085 69.085 0 001.643-2.339c1.063 1.241 1.072.532 1.478 1.78 3.41-2.347.943-2.967 4.537-3.344-.385-1.915-.046-1.994-1.205-3.468.245-.265.47-.568.714-.833 1.148 1.057.499 1.153 1.929 1.551 1.507.686 2.235-.81 3.565-.784 1.02-1.787.754-1.37.306-2.737 2.033.09.083.99 2.877.083l.453-.232-1.024-2.011a84.152 84.152 0 012.286-2.198c-.518 1.531-.62 1.349-.541 2.294-.347.036-.725.041-1.106.047.362.332.723.664 1.081.998l1.346-.686c1.083-.974.656-.616 2.013-.509-.707 1.205-1.422 2.413-2.126 3.617-1.962-1.065-6.891 3.652-9.077 6.69-1.254-.769.467-.849-1.073-1.002-1.63-.109-2.769 2.114-5.441 3.804-.085.56-.178 1.123-.27 1.686 2.586.137 1.344.348 3.147-1.603a48.978 48.978 0 00-.289 1.649c6.61-3.791 13.442-12.856 19.484-12.978l.776-2.929c.225-.303.451-.605.695-.87-1.754 1.128-.715.27-1.856 1.931l-.816-1.603c-1.383 1.737-1.305 1.182-.991 2.524-1.689-1.017-.887-.581-.784-2.651-1.482.145-.888.077-2.006.505 1.141-2.129 4.902-.808 5.643-3.391.452-.84.572-.761-.399-.782.902-1.21 2.476-.511 4.714-1.885l1.99-.545c-.23 2.51.61 1.613-1.833 1.966-.406 1.052-.816 2.105-1.21 3.198.036-1.051.068-2.1.105-3.151-.876.774-.382.335-1.383 1.737-.338 1.204-.671 2.407-1.02 3.57l.896-.457.418.82c.829-1.784.54-.604.087-2.063 4.12.435 6.309-2.229 10.304-4.265.204-1.089.389-2.215.567-3.338.105 1.025.172.569 1.112-.051-.168.414-.336.829-.486 1.28 2.818-.309 7.048-3.263 6.165-5.722 2.56-.272 1.638.292 3.359-1.195-.092.563-.177 1.122-.27 1.686.97-.682 1.969-1.332 2.938-2.014-.804-1.56-.436-.856-1.684-2.192 4.018.675 4.006-2.134 6.244-2.899-.138.023-.291-.04-.381-.088.347-.036.724-.04 1.101-.044-.276 0-.503.068-.72.132 2.246.076 8.404-6.487 8.721-7.822-.225.302-.45.604-.695.87.853-2.171 2.548-2.706 2.403-5.307 2.215-.002.183.892 2.218-.098.526-.08 1.037-.199 1.563-.28a126.266 126.266 0 01-1.948-1.588c.988-.222.456.425.904-.461 1.444.203.979.018 2.185.951 2.216-3.569 2.831-4.679 8.174-6.229-.567-.368-1.153-.773-1.72-1.141 1.254-.123 2.519-.252 3.773-.374-.993-.855-1.997-1.704-2.998-2.555 1.319-.015 2.653.009 3.971-.006-.056-.487-.124-.969-.18-1.456l-1.141 1.097-1.058-.962c1.647-.511 1.228-1.002 2.737-2.427-.225.302-.47.568-.695.87 2.259.867 3.853.289 4.472-1.246-.245.265-.47.568-.707.829 1.463-3.795 25.955-24.205 27.434-25.193-.719-.666-1.411-1.299-2.13-1.965 2.579-1.173 4.479-3.971 6.662-6.961 2.53-.819 1.347-3.454 1.741-5.485 2.121-.048.709-1.018 2.427.312 1.148-1.664.754-1.792 1.66-3.427-.418-.444-.852-.926-1.27-1.37l1.302.321c1.652-.372.033.781 2.881.081l-.418-.819c.497-.065 1.422-4.244 1.078-5.664 14.047-2.418 24.539-26.628 36.831-34.439l.006-.144c.041.026.079.054.094.046A31.57 31.57 0 01761 238.6c-.229-1.573-.462-3.143-.692-4.715l2.25-1.147c-.53.035 19.403-17.582 19.403-17.582.647-1.69 1.302-3.384 1.949-5.075l-1.443-2.831c-1.515 1.1-3.014 2.239-4.536 3.344.791-2.328-.058-2.036 1.016-3.568.732.94-.314.441 1.061.961zM85.569 543.99c.011-.053.037-.066.067-.081-.585.204-.711.268-.067.081z" fill="currentColor"/></svg>