<?xml version="1.0" standalone="no"?>
<!DOCTYPE svg PUBLIC "-//W3C//DTD SVG 20010904//EN"
 "http://www.w3.org/TR/2001/REC-SVG-20010904/DTD/svg10.dtd">
<svg version="1.0" xmlns="http://www.w3.org/2000/svg"
 width="512.000000pt" height="512.000000pt" viewBox="0 0 512.000000 512.000000"
 preserveAspectRatio="xMidYMid meet">
<metadata>
Created by potrace 1.14, written by Peter Selinger 2001-2017
</metadata>
<g transform="translate(0.000000,512.000000) scale(0.100000,-0.100000)"
fill="#000000" stroke="none">
<path d="M2447 4994 c-1 -2 -33 -5 -71 -9 -61 -5 -129 -13 -241 -30 -101 -16
-375 -91 -450 -125 -11 -5 -58 -25 -105 -45 -313 -135 -618 -359 -850 -625
-36 -41 -67 -77 -71 -80 -3 -3 -33 -43 -66 -90 -138 -191 -254 -415 -328 -630
-35 -100 -73 -232 -81 -280 -4 -23 -7 -36 -19 -100 -3 -14 -8 -43 -11 -65 -2
-22 -6 -51 -9 -65 -18 -122 -24 -344 -12 -460 4 -36 10 -90 13 -120 3 -30 10
-79 16 -109 5 -30 12 -64 13 -75 19 -123 89 -344 157 -500 280 -639 822 -1128
1483 -1339 113 -37 185 -57 220 -62 11 -2 31 -6 45 -9 95 -20 221 -37 290 -40
25 -1 50 -4 55 -7 12 -7 239 -3 315 4 30 4 80 9 110 12 77 8 296 52 361 71
366 111 648 261 914 484 399 335 681 793 800 1299 29 122 34 146 41 206 3 33
8 68 10 78 22 121 23 366 0 547 -2 19 -7 60 -11 90 -3 30 -8 57 -10 60 -2 3
-6 26 -10 50 -3 25 -15 79 -26 120 -11 41 -22 82 -24 90 -2 8 -19 60 -38 116
-232 678 -766 1227 -1441 1479 -141 53 -323 104 -431 119 -23 4 -50 8 -60 10
-26 5 -105 15 -175 22 -60 6 -298 13 -303 8z"/>
</g>
</svg>
